/* XPM */
static char *result[] = {
/* columns rows colors chars-per-pixel */
"64 64 193 2 ",
"   c #0C7037",
".  c #01743A",
"X  c #007C3B",
"o  c #25703D",
"O  c #4B5337",
"+  c #66523B",
"@  c #187243",
"#  c #216541",
"$  c #3F6B40",
"%  c #3A6C54",
"&  c #1E5977",
"*  c #535E58",
"=  c #695D49",
"-  c #69774C",
";  c #68695D",
":  c #766D58",
">  c #7A725C",
",  c #596568",
"<  c #4C6A77",
"1  c #536A74",
"2  c #597779",
"3  c #6B746A",
"4  c #797666",
"5  c #687C78",
"6  c #787A78",
"7  c #7C7D7E",
"8  c #99774E",
"9  c #806D56",
"0  c #857255",
"q  c #9A7C54",
"w  c #A57C4E",
"e  c #827767",
"r  c #8D7C63",
"t  c #827C68",
"y  c #00823D",
"u  c #00893F",
"i  c #738152",
"p  c #558771",
"a  c #768273",
"s  c #848857",
"d  c #9F8055",
"f  c #978E5D",
"g  c #AC804F",
"h  c #BD874E",
"j  c #A98658",
"k  c #AA8759",
"l  c #B78853",
"z  c #828069",
"x  c #9E8764",
"c  c #91826C",
"v  c #9D906C",
"b  c #8B8375",
"n  c #968A76",
"m  c #9D927B",
"M  c #A68A66",
"N  c #A88D69",
"B  c #AF9367",
"V  c #AB956B",
"C  c #B49765",
"Z  c #BD9A66",
"A  c #BB9C6C",
"S  c #A49474",
"D  c #A49576",
"F  c #AB9C7C",
"G  c #B69D74",
"H  c #BEA578",
"J  c #C38E55",
"K  c #CB9357",
"L  c #D69A59",
"P  c #DC9E5B",
"I  c #E2A25D",
"U  c #EEA95F",
"Y  c #C6A46D",
"T  c #C9A56E",
"R  c #C2A572",
"E  c #CCAB74",
"W  c #C1A77A",
"Q  c #D2AE74",
"!  c #D4B176",
"~  c #DAB477",
"^  c #DCB678",
"/  c #DEB87A",
"(  c #EFAA61",
")  c #F7B064",
"_  c #FAB265",
"`  c #E2BB7B",
"'  c #E8BF7D",
"]  c #EBC27F",
"[  c #1D6689",
"{  c #1E6B90",
"}  c #25759A",
"|  c #397B97",
" . c #3C7E9C",
".. c #257CA6",
"X. c #2C7EA3",
"o. c #337FA2",
"O. c #44798A",
"+. c #4A7888",
"@. c #527A81",
"#. c #427E99",
"$. c #7E7F80",
"%. c #1D87BA",
"&. c #1E8BBF",
"*. c #2D80A6",
"=. c #2883AD",
"-. c #2385B3",
";. c #2087B8",
":. c #218ABB",
">. c #6D818B",
",. c #7F8082",
"<. c #688B97",
"1. c #718792",
"2. c #748B95",
"3. c #72939D",
"4. c #7B99A2",
"5. c #1D8EC4",
"6. c #1C90C7",
"7. c #1D92C9",
"8. c #218FC4",
"9. c #2194CA",
"0. c #209CD7",
"q. c #858687",
"w. c #868788",
"e. c #868C8B",
"r. c #898A8A",
"t. c #9F988E",
"y. c #899595",
"u. c #8D9A9A",
"i. c #939595",
"p. c #959999",
"a. c #9C9D9D",
"s. c #A59C82",
"d. c #A49987",
"f. c #83A198",
"g. c #8D9EA4",
"h. c #8BA4AA",
"j. c #94A2A2",
"k. c #9AA5A5",
"l. c #93A4A9",
"z. c #9DADAD",
"x. c #99ADB2",
"c. c #9CB2B5",
"v. c #A2A3A3",
"b. c #A2ADAD",
"n. c #ADADAD",
"m. c #A8AEB2",
"M. c #A3B2B2",
"N. c #ADB2B2",
"B. c #A3B8BA",
"V. c #ACBDBD",
"C. c #B1B3B3",
"Z. c #B9B7B3",
"A. c #BDBDBD",
"S. c #C2BFBB",
"D. c #EFC580",
"F. c #F2C681",
"G. c #F4C983",
"H. c #FACE86",
"J. c #FDD087",
"K. c #FFEEBA",
"L. c #AEC1C1",
"P. c #ADC9CA",
"I. c #B3C5C5",
"U. c #B4C7C8",
"Y. c #B6C8C8",
"T. c #BBCECE",
"R. c #B5D5D5",
"E. c #BDD1D1",
"W. c #BBDADB",
"Q. c gray78",
"!. c #CBCACA",
"~. c #C2D6D6",
"^. c #C4DADA",
"/. c #C9DEDE",
"(. c #D3D3D3",
"). c #DCD9D7",
"_. c #DDDDDD",
"`. c #C4E1E1",
"'. c #CCE2E3",
"]. c #CDE9E9",
"[. c #D1E7E7",
"{. c #D1E7E8",
"}. c #D5ECEC",
"|. c #D8EFEF",
" X c #D9F0EF",
".X c #D7EFF0",
"XX c #DAF1F1",
"oX c #E3E2E3",
"OX c #E7E7E8",
"+X c #EDECEC",
"@X c #F2F2F3",
"#X c #F7F8F9",
"$X c #FFFFFF",
/* pixels */
"K.K.K.K.K.K.K.K.K.K.K.K.K.K.K.K.K.K.K.K.K.K.K.K.K.K.K.K.K.K.K.K.K.K.K.K.K.K.K.K.K.K.K.K.K.K.K.K.K.K.K.K.K.K.K.K.K.K.J.K.K.K.K.K.",
"K.K.K.K.K.K.K.K.K.K.K.K.K.K.K.K.K.K.K.K.K.J.K.K.K.K.K.K.K.K.K.K.K.K.K.K.K.K.K.K.K.K.K.K.K.K.K.K.K.K.K.K.K.K.K.K.K.K.K.K.K.K.K.K.",
"K.K.K.K.J.K.K.K.K.K.K.J.K.K.K.K.K.K.K.K.K.K.K.K.K.K.K.K.K.K.K.K.K.K.K.K.K.K.K.K.K.K.K.K.K.K.K.K.K.K.K.K.K.K.K.K.K.K.K.K.K.K.K.K.",
"K.K.K.K.K.K.K.K.K.K.K.K.K.K.K.K.K.K.K.K.K.K.K.K.K.K.K.K.K.K.K.K.K.K.K.K.J.K.K.K.K.K.K.K.K.K.K.K.K.K.K.K.K.K.K.K.K.K.K.K.K.K.K.K.",
"K.K.K.K.K.K.K.K.K.K.K.K.J.K.K.K.K.K.K.K.K.K.K.K.K.K.K.K.K.K.K.K.K.K.K.K.K.K.K.K.K.K.K.K.K.K.K.K.K.K.K.K.K.K.K.K.K.K.K.K.K.K.K.K.",
"K.K.K.K.K.K.K.K.K.K.K.J.K.K.K.K.K.K.K.K.K.K.K.K.K.K.K.K.K.K.K.K.K.K.K.K.K.K.K.K.K.K.K.K.K.K.K.K.K.K.K.K.K.K.K.K.K.K.K.K.K.K.K.K.",
"K.K.K.K.K.K.K.K.K.K.K.K.K.K.K.K.K.K.K.K.K.K.K.K.K.K.K.K.K.K.J.K.K.K.K.K.K.K.K.K.K.K.K.K.K.K.K.K.K.J.K.K.K.K.K.K.K.K.H.K.K.K.K.K.",
"K.K.K.K.K.K.K.K.K.K.K.K.K.K.K.K.K.K.K.K.K.K.K.K.K.K.K.K.K.K.K.K.K.K.K.K.K.K.K.K.K.K.K.K.K.K.K.K.K.K.K.K.K.K.K.K.K.K.K.K.K.K.K.K.",
"K.K.K.K.K.K.K.K.K.K.K.K.K.K.K.K.K.K.K.K.K.K.K.K.K.K.K.K.K.K.K.K.K.K.K.K.K.K.K.K.K.K.K.K.K.K.K.K.K.K.K.K.K.K.K.K.K.K.K.K.K.K.K.K.",
"K.K.J.K.K.K.K.K.K.K.K.K.K.K.K.K.K.K.K.K.K.K.K.K.K.K.K.K.K.K.K.K.K.K.K.K.K.H.] / ] H.K.K.K.K.K.K.K.K.K.K.K.K.K.K.K.K.K.K.K.K.K.K.",
"K.K.K.K.K.K.K.K.K.K.K.K.J.K.K.K.K.K.K.K.K.K.K.K.K.K.K.K.K.K.K.K.K.K.K.J.T d q g 8 d E J.K.K.K.K.K.K.K.K.K.K.K.K.K.K.K.K.K.K.K.K.",
"K.K.K.K.K.K.K.K.K.K.J.K.K.K.K.K.K.K.K.K.K.K.K.K.K.K.K.K.K.K.K.K.K.K.H.k g I ) _ ) P g C H.K.K.K.K.K.K.K.K.K.K.K.K.K.K.K.K.K.K.K.",
"K.K.K.K.K.K.K.K.K.K.K.K.K.K.K.K.K.K.K.K.K.K.K.K.K.K.K.K.K.K.K.K.K.K.B h ) _ _ ) ) _ ) l Z J.K.K.K.K.K.K.K.K.K.K.K.K.K.K.H.K.K.K.",
"K.K.K.K.K.K.K.K.K.K.K.K.K.K.K.K.K.K.K.K.K.K.K.K.K.K.K.K.K.K.K.K.K.! g ) _ _ _ _ _ _ _ ) g ^ K.K.K.K.K.K.K.K.K.H.K.K.K.K.K.K.K.K.",
"K.K.K.K.K.K.K.K.K.K.K.K.K.K.K.K.K.K.K.K.K.K.K.K.K.K.K.K.K.K.K.K.J.j I _ ) _ _ _ _ _ _ _ L B J.K.K.K.K.K.K.K.K.K.K.K.K.K.K.K.K.K.",
"K.J.K.K.K.K.K.K.K.F.G.K.K.K.K.K.K.K.K.K.K.K.K.K.K.K.K.R z ] K.K./ l _ _ _ _ _ _ _ _ ) _ ) g ] K.K.H.K.K.K.K.K.K.K.K.K.K.K.K.K.K.",
"K.K.K.K.K.K.K.D.V m n A G.G.K.K.K.K.K.K.K.K.K.K.K.K.E | -.a ] K.T J U U U U ( _ _ _ _ _ _ J ! K.K.K.K.K.K.K.K.K.K.K.K.K.K.K.K.K.",
"K.K.K.K.K.K.G.m (.#X@XZ.r n A J.K.K.K.K.K.K.K.K.K.E O.6.%.%.a ] Z w r n c b r K _ _ _ _ _ L Y K.K.K.K.K.K.K.K.K.K.K.K.K.K.K.H.K.",
"K.K.K.K.K.K.E S.$X$X$X#X+X@Xv./ K.K.K.K.K.K.K.K.Q +.5.#.2.=.%.a k q u.M.M.M.i.h _ _ _ _ _ I Z K.K.K.K.K.K.K.K.K.K.K.K.K.K.K.K.K.",
"K.K.K.K.K.K.G oX$X$X$X$X$X$X(.x E K.K.K.K.K.K.! +.7.#.U.|.h.=.;.* J 4 z.z.l.: I _ _ _ _ _ P Z K.K.K.K.K.K.K.K.K.K.K.K.K.K.K.K.K.",
"K.K.K.K.K.K.F +X$X$X$X$X$X$X#XOXd.F.K.K.K.K.! +.5. .I. X|.}.4.-.-.: n  X].R.B _ _ _ _ _ _ K T K.K.K.K.K.K.K.K.K.K.K.K.K.K.K.K.K.",
"K.K.K.K.K.K.G Z.!.!.!.!.!.!.!.Q.s.G.K.K.K.^ @.7. .L. XXX|.|.}.g.=.-.2 ^.].W.M ) _ _ _ _ _ l / K.K.K.K.K.K.K.K.K.K.K.K.K.K.K.K.K.",
"K.K.K.K.K.K.G.R H A A A A A A A / K.K.K./ @.6. .V. X|././.|.XX[.4.-.-.<.'.`.v _ _ _ _ _ ( j H.K.K.K.K.K.K.K.K.K.K.K.K.K.K.K.K.K.",
"K.K.K.K.K.K.K.K.K.K.K.K.K.K.K.K.K.K.K./ 2 8.*.B.|.[.z.p.p.k.'.XX[.3.-.-.3.P.M _ _ _ _ _ J A K.K.K.K.K.K.K.K.H.K.K.K.K.K.K.K.K.K.",
"K.K.K.K.K.K.K.K.J.K.K.K.K.K.K.K.K.K./ 2 5. .B.XX.Xz.A.#X#X!.k.}. X[.3.;.=.>.M ) _ _ _ P j F.K.K.K.K.K.K.K.K.K.K.K.K.K.K.K.K.K.K.",
"K.J.K.K.K.K.K.K.K.K.K.K.K.K.K.K.K.] 2 6.o.B.}..X~.b.$X$X$X$XC.I.W.`.'.3.:.=.: ) _ ) P 8 / K.K.K.K.K.K.K.K.J.K.K.K.K.K.K.K.K.K.K.",
"K.K.K.K.K.K.K.K.K.K.K.K.K.K.K.K.] 5 7.*.c.|. XXXI.!.$X$X$X$X).N.].W.].'.<.&.*.q K g d ` K.K.K.K.K.J.K.K.K.K.K.K.K.K.K.K.K.K.K.K.",
"K.K.K.K.K.K.K.K.K.K.K.K.K.K.K.] 5 :.*.c. X|.|.XXV.(.$X$X$X$X[.M.}.}.}.XX'.<.%...= E H.K.K.K.K.K.K.K.K.K.K.K.K.K.J.K.K.K.K.K.K.J.",
"K.K.K.K.K.K.K.K.K.K.K.K.K.K.] 5 5.*.x.}.XX XXXXXI.S.$X$X$X$X!.V.XX.X.X.XXX'.<.&.*.V J.K.J.K.K.K.K.K.K.K.K.K.K.K.K.K.K.K.K.K.K.K.",
"K.K.K.K.K.K.K.K.K.K.K.K.K.D.5 5...h. X}.].].}.XX'.a.+X$X$X#Xv.^..X.X}.`.'..X^.< &.*.S K.K.K.K.K.K.K.K.K.K.K.K.K.K.K.K.K.K.K.K.K.",
"K.K.K.K.K.K.K.J.K.K.K.K.K.R ..X.3 '.XX}.W.W.}.|.XXI.a.(.(.v.V.|.|.|.}.`.R.].}.n 3 %.2 F.K.K.K.K.K.K.K.K.K.K.K.K.K.K.K.K.J.K.K.K.",
"K.J.K.K.K.K.K.K.K.K.K.K.K.F.4 v D '. X}.W.W.]. X.X.XT.j.j.I.|.|.|.|..X}.].}.].s.` 3 F K.K.K.K.K.K.K.K.K.K.K.J.K.K.K.K.K.K.K.K.K.",
"K.K.K.K.K.K.K.K.K.K.K.K.K.K.] G.F '. X}.`.].|.|.|.|.XXXXXXXX}. X|.|.|.|. X X{.s.H.G.H.K.K.K.K.K.K.K.K.K.K.K.K.K.K.K.K.K.K.K.K.K.",
"K.K.K.K.K.K.K.K.K.K.K.K.K.K.K.J.F '.|.}.}.}.}.}.}.|.|.|.}.|.}.}.}.|.}.}.|.}.].s.G.K.H.H.H.K.K.K.H.K.K.K.K.K.K.K.K.K.K.K.K.K.K.K.",
"K.K.K.K.K.K.K.K.K.K.K.K.K.K.K.K.F '.I.y.u.u.u.y.M.XXM.u.k.j.j.j.j.j.j.j.j.j.j.6 S S D S D D D D S ! K.K.K.K.K.K.K.K.K.K.K.K.K.K.",
"K.K.K.K.K.K.K.K.K.K.K.K.K.K.K.K.F '.b.V.'.^./.Y.j.}.z.E./.'.'.'.'.'.'.'.'.'.'.'.'.'.'.[.'.'.'./.I.H K.K.K.K.K.K.K.K.K.K.K.K.K.K.",
"K.K.K.K.K.K.K.K.K.K.K.K.K.K.K.K.F '.B.~.XX XXX/.k.}.z.{.XX{.T.Y.U.U.U.U.Y.Y.Y.Y.I.I.Y.I.Y.U.].XX~.W K.K.K.K.K.K.K.K.K.K.K.K.K.K.",
"K.K.K.K.K.K.K.K.K.K.K.K.K.K.G.F.F ].M.T.XX|.XX'.z.{.z.{.XXI.i.C.C.C.b.b n.C.n.C.r.k.C.C.C.a.M.XX~.W K.K.K.K.K.K.K.K.K.K.K.K.K.K.",
"K.K.K.K.K.K.K.K.K.K.K.K.K.G.- - S '.M.E.XX|.|./.k.}.z.{.XXY.!.$X$X$X@Xn.$X$X$X$XA.oX$X$X$XoXN.XX~.W K.K.K.K.K.K.K.K.K.K.K.K.K.K.",
"K.K.K.K.K.K.K.K.K.K.K.K.K.A     ; [.M.~.XX|.|./.z.}.z.{.XXI.!.$X$X$X@Xn.#X$X$X$XA.oX$X$X$XoXN.XX~.W K.K.K.K.K.K.K.K.K.K.K.K.K.K.",
"K.K.K.K.K.K.K.K.K.K.K.K.J.- u y % '.M.~. X|. X/.k.}.z.].XXI.!.$X$X$X@Xn.#X$X$X$XA.oX$X$X$XoXM.XX~.H ' ` D.K.K.J.K.K.K.K.K.K.K.K.",
"K.K.K.K.K.K.K.K.K.K.K.K.^ o u u @ P.B.E. X X}.E.k.}.z.].XXI.!.$X$X$X@Xn.$X$X$X$XA.oX$X$X$XoXM.XXI.e d.t.e N D.J.K.K.K.K.K.K.K.K.",
"K.K.K.K.K.K.K.K.K.K.K.K.V . . . . f.N.E.XX|.}.R.z.}.z.{.XXI.!.$X$X$X@Xn.#X$X$X$XA.oX$X$X$XoXM.T.p._.$X+XC.!.S D.K.K.K.K.K.K.K.K.",
"K.K.K.K.K.K.K.K.K.K.K.K.s y X . X p M.E.XX|.}.E.k.}.z.{.XXI.!.$X$X$X@Xn.$X$X$X$XA.oX$X$X$XoXb.a.oX$X$X+XC.$X(.V K.K.K.K.K.K.K.K.",
"K.K.K.K.K.K.K.K.K.K.K.K.i X . . u p b.~.XX|.|.^.z.{.z.{.XXI.!.$X$X$X@Xn.$X$X$X$XA.oX$X$X#Xj.1 1 1.1.1.$., 2.1., E K.K.K.K.K.K.K.",
"K.K.K.K.K.K.K.K.K.K.K.K.f . y y X a b.E.XX|..X/.k.}.z.{.XXI.!.$X$X$X@Xn.$X$X$X$XA.oX$X$XQ.} 7.7.9.5.[ { { 5.6.5.2 F.K.K.K.K.K.K.",
"K.K.K.K.K.K.K.K.K.K.K.K.` $ X X # L.B.E.XX XXX'.k.{.z.{.XXI.!.$X$X$X@Xn.#X$X$X$XA.oX$X$Xx.&.0.X.X.7.7.&.} X.| 8.| ` K.K.J.K.K.K.",
"K.K.K.K.K.K.K.K.K.K.K.K.K.! O O 4 ].M.E.XX}.|./.z.{.M.{.XXU.i.n.n.n.v.7 n.n.n.n.r.a.n.n.$.} ..m.C.X.6.%.& j.).+.2 ] K.K.K.K.K.K.",
"K.K.K.K.K.K.K.K.K.K.K.K.K.H.8 : m {.B.E.XXXXXX'.z.|.c.{.XX}.E.T.T.T.T.T.T.T.T.T.T.T.T.T.T.k.@._.OX4 4 t : Z.#Xr ! K.K.K.K.K.K.K.",
"K.K.K.K.K.K.K.K.K.K.K.~ Z C + + > k.,.u.M.M.b.j.6 z.a z.z.z.M.M.M.M.z.M.M.b.M.b.M.b.M.M.M.M.r.$.$.9 Z A B ; 6 0 A A ! K.K.K.K.K.",
"K.K.J.K.K.K.K.K.K.K.K.x 6 $.t q.$.,.,.,.,.,.,.,.$.$.$.,.$.$.,.,.,.$.,.,.,.,.,.,.$.$.,.,.,.,.,.$.7 $.,.a ,.7 6 $.$.6 r J.K.K.K.K.",
"K.K.K.K.K.K.K.K.K.K.K.x 7 w.w.w.q.q.w.e.q.q.q.q.w.w.w.w.w.w.w.e.q.q.q.w.q.q.e.e.q.w.q.q.w.w.w.w.w.w.w.r.w.w.w.e.w.$.r J.K.K.K.K.",
"K.K.K.K.K.K.H.K.K.K.K.! N B B B V B B B B B B B B B V B B B V C B B B B B B B V B B B B N B B B N B B B B B V C B B E K.K.K.K.K.",
"K.K.K.K.K.K.K.K.K.K.K.K.K.K.K.K.K.K.K.K.K.K.K.K.K.K.K.K.K.K.K.K.K.K.K.K.K.K.K.K.K.K.K.K.K.K.K.K.K.K.K.K.K.K.K.K.K.K.K.K.K.K.K.J.",
"K.K.K.K.K.K.K.K.K.K.K.K.K.K.K.K.K.K.K.K.K.K.K.K.K.K.K.K.K.K.K.K.K.K.K.K.K.K.K.K.K.K.K.K.K.K.K.K.K.K.K.K.K.K.K.K.K.K.K.K.K.K.K.K.",
"K.K.K.K.K.K.K.K.K.K.K.K.K.K.K.K.K.K.K.K.K.K.K.K.K.K.K.K.K.K.K.K.K.K.K.K.K.K.K.K.K.K.K.K.K.K.K.K.K.K.K.K.K.K.K.K.K.K.K.K.K.K.K.K.",
"K.K.K.K.K.K.K.K.K.K.K.K.K.K.K.K.K.K.K.K.K.K.K.K.K.K.K.K.K.K.K.K.K.K.K.K.K.K.K.K.K.K.K.K.K.K.K.K.K.K.K.K.K.K.K.K.K.K.K.K.K.K.K.K.",
"K.K.K.K.K.K.K.K.K.K.K.K.K.K.K.K.K.K.K.K.K.K.K.K.K.K.K.K.K.K.K.K.K.K.K.K.K.K.K.K.K.K.K.K.K.K.K.K.K.K.K.K.K.K.K.K.K.K.K.K.K.K.K.K.",
"K.K.K.K.K.K.K.K.K.K.K.K.K.K.K.K.K.K.K.J.K.K.K.K.K.K.K.K.K.K.K.K.K.K.K.K.K.K.K.K.K.K.K.K.J.K.K.K.K.K.K.K.K.K.K.K.K.K.K.K.K.K.K.K.",
"K.K.J.K.K.K.K.K.K.K.K.K.K.K.K.K.K.K.K.K.K.J.K.K.K.K.K.K.K.K.K.K.K.K.K.K.K.K.K.K.K.K.K.K.K.K.K.K.K.K.K.K.K.K.K.K.K.K.K.K.K.K.K.K.",
"K.K.K.J.K.K.J.K.K.K.K.K.K.K.K.K.K.K.K.K.K.K.K.K.K.K.K.K.K.K.K.K.K.K.K.K.K.K.K.K.K.K.K.K.K.K.K.K.K.K.K.K.K.K.K.K.K.K.K.K.K.J.K.K.",
"K.K.K.K.K.K.K.K.K.K.K.K.K.K.K.K.K.K.K.K.K.K.K.K.K.K.K.K.K.K.K.K.K.K.K.K.K.K.K.K.K.K.K.K.K.K.K.K.K.K.K.K.K.K.K.K.K.K.K.K.K.K.K.K.",
"K.K.K.K.K.K.K.K.K.K.K.K.K.K.K.K.K.K.K.K.J.K.K.K.K.K.K.K.K.K.K.K.K.K.K.K.K.K.K.K.K.K.K.K.K.K.K.K.J.K.K.K.K.J.K.K.K.K.K.K.K.K.K.K.",
"K.K.K.K.K.K.K.K.K.K.K.K.K.K.K.K.K.K.K.K.K.K.K.K.K.K.K.K.K.K.K.K.K.K.K.K.K.K.K.K.K.K.K.K.K.K.K.K.K.K.K.K.K.K.K.K.K.K.K.K.K.K.K.K."
};
