/* XPM */
static char *result[] = {
/* columns rows colors chars-per-pixel */
"64 64 198 2 ",
"   c #624315",
".  c #6A4917",
"X  c #654518",
"o  c #66491D",
"O  c #6E4C19",
"+  c #714E1A",
"@  c #74521D",
"#  c #7B561D",
"$  c #7C581F",
"%  c #6A4D23",
"&  c #6E5128",
"*  c #745629",
"=  c #7C5E2E",
"-  c #765B34",
";  c #7F602F",
":  c #7B613C",
">  c #7E6540",
",  c #855D1E",
"<  c #8A611F",
"1  c #825D21",
"2  c #8B6222",
"3  c #81622F",
"4  c #8B6629",
"5  c #8E692C",
"6  c #936720",
"7  c #946A26",
"8  c #9A6E26",
"9  c #936B2A",
"0  c #996E29",
"q  c #9E7024",
"w  c #9E732A",
"e  c #896935",
"r  c #967132",
"t  c #997538",
"y  c #9C7A3E",
"u  c #A67625",
"i  c #A3762B",
"p  c #A6792D",
"a  c #B27F29",
"s  c #A67C33",
"d  c #A97D33",
"f  c #A17E3E",
"g  c #836A46",
"h  c #89714F",
"j  c #997943",
"k  c #8D7756",
"l  c #957E5A",
"z  c #947F60",
"x  c #BA852A",
"c  c #AC8036",
"v  c #AD833C",
"b  c #B0873D",
"n  c #C68E2D",
"m  c #CE942F",
"M  c #D99C31",
"N  c #E8A835",
"B  c #F8AE3B",
"V  c #FDB637",
"C  c #F9B53A",
"Z  c #FDB739",
"A  c #FEB83B",
"S  c #9B8152",
"D  c #A58346",
"F  c #AF8845",
"G  c #A4844B",
"H  c #AC8A4C",
"J  c #B58C44",
"K  c #B18B4A",
"L  c #BA934C",
"P  c #B38F51",
"I  c #AF9158",
"U  c #BA9757",
"Y  c #B3945B",
"T  c #9B876A",
"R  c #9B8B71",
"E  c #AF9969",
"W  c #B69965",
"Q  c #BC9E64",
"!  c #A6947A",
"~  c #BFA268",
"^  c #BEA475",
"/  c #C19D58",
"(  c #C5A25E",
")  c #DFB15D",
"_  c #ECB44D",
"`  c #F4B543",
"'  c #FDBB44",
"]  c #FDBE4A",
"[  c #E3B156",
"{  c #E1B15A",
"}  c #C8A663",
"|  c #C4A66B",
" . c #C7AA6F",
".. c #CDAC6B",
"X. c #D4AE6A",
"o. c #DCB164",
"O. c #C8AB75",
"+. c #C5AB7C",
"@. c #CCB176",
"#. c #CDB37B",
"$. c #D4B576",
"%. c #FDC04F",
"&. c #FDC356",
"*. c #FDC45C",
"=. c #FECC6D",
"-. c #EDC57E",
";. c #FECD74",
":. c #FED17A",
">. c #988F82",
",. c #9A9286",
"<. c #9F9A91",
"1. c #AF9F87",
"2. c #BAA98A",
"3. c #BAAA8B",
"4. c #A9A49B",
"5. c #ACA69B",
"6. c #B3A793",
"7. c #BAAC98",
"8. c #A3A4A6",
"9. c #A9A7A4",
"0. c #A4A6A8",
"q. c #AAABAC",
"w. c #B7B4AB",
"e. c #AFB0B1",
"r. c #B1B2B4",
"t. c #B6B7B8",
"y. c #BBBBBD",
"u. c #C1AD86",
"i. c #CBB186",
"p. c #D4BB82",
"a. c #CDB998",
"s. c #C3B7A5",
"d. c #C5BCAA",
"f. c #D0BFA1",
"g. c #DEC285",
"h. c #D9C28C",
"j. c #DFCB98",
"k. c #F1C78A",
"l. c #FED78B",
"z. c #E4CC93",
"x. c #E9D196",
"c. c #E6D29D",
"v. c #EBD59D",
"b. c #FED995",
"n. c #FFDC96",
"m. c #CBC4AF",
"M. c #D5C6A9",
"N. c #CAC4B7",
"B. c #DAD1B9",
"V. c #EBD7A2",
"C. c #EDD9A5",
"Z. c #EEDCA9",
"A. c #F1DCA6",
"S. c #F1DEAA",
"D. c #E7DBB6",
"F. c #FFE2A5",
"G. c #F5E2AC",
"H. c #FDE4AD",
"J. c #FFE9AE",
"K. c #F5E4B4",
"L. c #FBE6B3",
"P. c #FCEAB5",
"I. c #FFEEBA",
"U. c #FFF0BC",
"Y. c #BFC0C1",
"T. c #C6C7C8",
"R. c #CBCCCD",
"E. c #DCD4C7",
"W. c #DFD9CE",
"Q. c #CFD0D1",
"!. c #D4D5D6",
"~. c #DFD9D0",
"^. c #D6D7D8",
"/. c #D7D8D9",
"(. c #DBDBDC",
"). c #E5DDCD",
"_. c #E2DED5",
"`. c #FDEDC4",
"'. c #F7EDCE",
"]. c #FFEBCB",
"[. c #ECE6D9",
"{. c #F9EDD7",
"}. c #FFF3D5",
"|. c #DDDFE0",
" X c #E3E4E4",
".X c #E8E7E4",
"XX c #EDEAE4",
"oX c #E7E7E8",
"OX c #EAEAEA",
"+X c #F0EDE9",
"@X c #FFF5E4",
"#X c #F3F1EC",
"$X c #FFF7E8",
"%X c #EFEFF0",
"&X c #F3F3F2",
"*X c #F9F6F2",
"=X c #FEFAF4",
"-X c #FEFEFE",
/* pixels */
"I.I.I.I.I.I.I.I.I.I.I.I.I.I.I.I.I.I.I.I.I.I.I.I.I.I.I.I.I.I.I.I.I.I.I.I.I.I.I.I.I.I.I.I.I.I.I.I.I.I.I.I.I.I.I.I.I.I.I.I.I.I.I.I.",
"I.I.I.I.I.I.I.I.I.I.I.I.I.I.I.I.I.I.I.I.I.I.I.I.I.I.I.I.I.I.I.I.I.I.I.I.I.I.I.I.I.I.I.I.I.I.I.I.I.I.I.I.I.I.I.I.I.I.I.I.I.I.I.I.",
"I.I.I.I.I.I.I.I.I.I.I.I.I.I.I.I.I.I.I.I.I.I.I.I.I.I.I.I.I.I.I.I.I.I.I.I.I.I.I.I.I.I.I.I.I.I.I.I.I.I.I.I.I.I.I.I.I.I.I.I.I.I.I.P.",
"I.I.I.I.I.I.I.I.I.I.I.I.I.I.I.I.I.I.I.I.I.I.I.I.I.I.I.I.I.I.I.I.I.I.I.I.I.I.I.I.I.I.I.I.I.I.I.I.I.I.I.I.I.I.I.I.I.I.I.I.I.I.I.I.",
"I.I.I.I.I.I.I.I.I.I.I.I.I.I.I.I.I.I.I.I.I.I.I.I.U.U.I.U.I.I.I.I.I.I.I.I.I.I.I.I.I.I.I.I.I.I.I.I.I.I.I.I.I.I.I.I.I.I.I.I.I.I.I.I.",
"I.I.I.I.I.I.I.I.I.I.I.I.I.I.I.I.I.I.I.I.I.U.P.G.c.h.#.| Q p.P.I.I.I.I.I.I.I.I.I.I.I.I.I.I.I.I.I.I.I.I.I.I.I.I.I.I.I.I.I.I.I.I.I.",
"I.I.I.I.I.I.I.I.I.I.I.I.I.I.I.I.U.I.U.P.V.#.I j r 9 8 8 w f V.U.I.I.I.I.I.I.I.I.I.I.I.I.I.I.I.I.I.I.I.I.I.I.I.I.I.I.I.I.I.I.I.I.",
"I.I.I.I.I.I.I.I.I.I.I.I.I.I.I.I.U.K.h.Y r 9 0 i i p p p p d v.U.I.I.I.I.I.I.I.I.I.I.I.I.I.I.I.I.I.I.I.I.I.I.I.I.I.I.I.I.I.I.I.I.",
"I.I.I.I.I.I.I.I.I.I.I.I.I.I.I.P.p.H 9 9 i p p p p p p p p c v.I.I.I.I.I.I.I.I.I.I.I.I.I.I.I.I.I.I.I.I.I.I.I.I.I.I.I.I.I.I.I.I.I.",
"I.I.I.I.I.I.I.I.I.I.I.I.I.I.c.I 9 9 i s p p p p p p p p p v v.U.I.I.I.I.I.I.I.I.I.I.I.I.I.I.I.I.I.I.I.I.I.I.I.I.I.I.I.I.I.I.I.I.",
"I.I.I.I.I.I.I.I.I.I.I.I.P.#.t 7 i p p p p p p p p p p p p c v.U.I.I.I.I.I.I.I.I.I.I.I.I.I.I.I.I.I.I.I.I.I.I.I.I.I.I.I.I.I.I.I.I.",
"I.I.I.I.I.I.I.I.I.I.I.G.W 4 w p p p p p p p p p p p p c F K v.I.I.I.I.I.I.I.I.I.I.I.I.I.I.I.I.I.I.I.I.I.I.I.I.I.I.I.I.I.I.I.I.I.",
"I.I.I.I.I.I.I.I.I.U.V.G 4 i p p p p p p p p p p p d ^ B._._.[.`.I.I.I.I.I.I.U.I.I.I.I.I.I.I.I.I.I.I.I.I.I.I.I.I.I.I.I.I.I.I.I.I.",
"I.I.I.I.I.I.I.I.U.v.j 7 p p p p p p p p p p p p U M.oX%XoXOXOXXX'.I.I.I.I.I.U.P.I.I.I.I.I.I.I.I.I.I.I.I.I.I.I.I.I.I.I.I.I.I.I.I.",
"I.I.I.I.I.I.I.U.x.y 8 p p p p p p p p p p p H a._.%XOXOXOXOXOXOXOX[.`.U.I.I.I.P.I.U.I.I.I.I.I.I.I.I.I.P.I.I.I.I.I.I.I.I.I.I.I.I.",
"I.I.I.I.I.I.U.c.y 7 p p p p p p p s p p d +.~.OX%XoXOXOXOXOXOXOXOXoX#X}.U.D.m.m.D.U.I.I.I.I.I.I.I.I.I.I.I.I.I.I.I.I.I.I.I.I.I.I.",
"I.I.I.I.I.I.C.D 8 p p p p p p p p p p i O.oXOXOXOXOXOXOXOXOXOXOX|.(.&X%XN.q.8.8.9.m.K.I.I.I.I.I.I.I.I.I.I.I.I.I.I.I.I.I.I.I.I.I.",
"I.I.I.I.I.G.H 7 p p p p p p p i i p p p 3.|.oXOXOXOXOXOXOXOX X(.^.!.Q.r.8.8.8.8.8.8.w.B.P.I.I.I.I.I.I.I.I.I.I.I.I.I.I.I.I.I.I.I.",
"I.I.I.I.P.Y 5 p p p p p p p i v O.f.f.f._.!./. XoXOXOXOX.X|.^.!.R.r.8.8.8.8.8.8.8.8.8.8.t.D.I.I.I.I.I.I.I.I.I.I.I.I.I.I.I.I.I.I.",
"I.I.I.I.O.9 i p p p p p i d ~ E.oXOXOX%X%XoX/.!.(. X.X X/.!.R.y.8.8.8.8.8.8.8.8.8.8.8.8.5.3.M.I.I.I.I.I.I.I.I.I.I.I.I.I.I.I.I.I.",
"I.I.U.Z.e w p p p p i i Y M..XOXOXOXOXOXOXOX%X X!.!.^.!.Q.Y.q.8.8.8.8.8.8.8.8.8.8.8.4.+._ ` o.v.I.I.U.I.I.I.I.I.I.I.I.I.I.I.I.I.",
"I.I.U.C.; w p p p p F a._.OXOXOXOXOXOXOXOXOXOX*X%X|./.T.e.8.8.8.8.8.8.8.8.8.8.8.8.2.[ A Z Z A ' ;.F.U.U.I.I.I.I.I.I.I.I.I.I.I.I.",
"I.I.U.C.; w p p i P W.OXOXOXOXoXOXOXOXOXOXoX X%X-X Xy.0.8.8.8.8.8.8.8.8.8.8.8.6.o.` Z Z Z Z Z Z A %.l.J.U.I.I.I.I.I.I.I.I.I.I.I.",
"I.I.U.C.; w p p i ^  XOXOXOXOXOXOXOXOXoX X(.^.|.T.q.8.8.8.8.8.8.8.8.8.8.8.5.O.` A Z Z Z Z Z Z Z A A A &.n.I.I.I.I.I.I.I.I.I.I.I.",
"I.I.I.C.3 w p b i.).!.(.oXoXOXOXOXOX X(.!.!.Y.q.8.8.8.8.8.8.8.8.8.8.8.8.u._ C Z Z Z Z Z Z Z Z Z V A V V ' =.F.P.I.I.I.I.I.I.I.I.",
"I.I.I.C.3 w U ).-X*X X!.^. XOXOXoX(./.!.T.r.8.8.8.8.8.8.8.8.8.8.8.8.3.{ C A Z Z Z Z Z Z Z Z Z Z A A C V V V ] l.J.U.I.I.I.I.I.I.",
"I.I.U.C.3 w M.-X-X-X-X%X|.!./.(./.!.R.t.0.8.8.8.8.8.8.8.8.8.8.8.5.X.` Z Z Z Z Z Z Z Z Z Z Z Z Z V V V A A V Z Z %.l.P.I.I.I.I.I.",
"I.I.I.C.3 i i.*X-X-X-X-X*X X^.^.!.y.q.8.8.8.8.8.8.8.8.8.8.8.9.+._ Z Z Z Z Z Z Z Z Z Z Z Z Z Z Z V A A A V A Z V A ` F.I.I.I.I.I.",
"I.I.`.C.= 2 * T ~.-X-X-X-X-X&XR.q.0.8.8.8.8.8.8.8.8.8.8.8.2.[ V Z Z Z Z Z Z Z Z Z Z Z Z Z Z Z Z V Z Z Z V V ' l.].k.F.I.I.I.I.I.",
"I.I.I.Z.= # O   * 1.XX-X-XOXy.0.8.8.8.8.8.8.8.8.8.8.8.6.o.C A V Z Z Z Z Z Z Z Z Z Z Z Z Z Z Z Z C Z A A A =.`.=X-X{.L.I.I.I.I.I.",
"I.I.U.C.= , < # o   > s..Xr.8.8.8.8.8.8.8.8.8.8.8.4...` A A V V Z Z Z Z Z Z Z Z Z Z Z Z Z Z Z Z V A V ] H.=X-X=XE.l E S.I.I.I.I.",
"I.I.I.C.= , 2 < 1 # X o >.0.8.8.8.8.8.8.8.8.8.9.u._ A A A A V A Z Z Z Z Z Z Z Z Z Z Z Z Z Z Z V V ' b.@X-X-X.X! &   @  .I.I.I.I.",
"I.I.I.C.= , < < < < , * ,.0.8.8.8.8.8.8.8.8.2.) C Z Z Z Z Z Z Z Z Z Z Z Z Z Z Z Z Z Z Z Z Z ' Z ;.].-X-X#Xw.:   . 2 w ..I.I.I.I.",
"I.I.U.Z.; , < < < < < e <.0.8.8.8.8.8.8.5.X.C V Z Z Z Z Z Z Z Z Z Z Z Z Z Z Z Z V V Z Z V A ] H.=X-X*XE.k X . , w p p ..I.I.I.I.",
"I.I.I.Z.= t ~ r < < < 4 <.0.8.8.8.8.8.5._ Z A V Z Z Z Z Z Z Z Z Z Z Z Z Z Z Z Z V A A V ] b.@X-X-X_.! %   # 7 p p p i ..U.I.I.I.",
"I.I.I.Z.= j L.c.Y 7 , e <.0.8.0.8.8.8.X.A Z V V Z Z Z Z Z Z Z Z Z Z Z Z Z Z Z Z A V Z ;.].-X-X#X7.-   O 2 p p p p p i X.I.I.I.I.",
"I.I.I.Z.3 G K.U.P.h.D 2 S <.0.0.8.8.9.) A A A A Z Z Z Z Z Z Z Z A V A V Z Z Z Z A *.L.=X-X=XN.h X X 1 w p p p p p p w | U.I.I.I.",
"I.I.I.I.j.c.U.U.I.I.H.@.t e R 8.8.8.8.[ A Z V A Z Z Z Z Z Z Z Z V A V A Z Z V %.b.$X-X-X_.R O X # 9 p p p p p p c r # Q I.I.I.I.",
"I.I.I.I.U.U.I.I.I.I.U.U.C.Q 5 j >.4.9.) Z Z Z Z Z Z Z Z Z Z Z Z A V V A A A ;.}.-X-X+X6.-   O 4 i p p p p p d U z.S O ~ U.I.I.I.",
"I.I.I.I.I.I.I.I.I.I.I.I.U.P.z.H 5 k <.[ Z Z Z Z Z Z Z Z Z Z Z Z A C A A *.L.=X-X=Xm.g   . 1 w p p p p p p K g.H.U.x.O.Z.I.I.I.I.",
"I.I.I.I.I.I.I.I.I.I.I.I.I.I.U.L.p.f 5 p M V Z Z Z Z Z Z Z Z Z Z V V ] b.@X-X-X~.T o   # 0 p p p p p p v ..G.I.I.I.U.U.U.I.I.I.I.",
"I.I.I.I.I.I.I.I.I.I.I.I.I.I.I.I.U.G.| r 2 x N Z Z V Z Z Z Z Z Z ' :.}.-X-XXX1.*   O 4 i p p p p p d ( v.U.I.I.I.I.I.I.I.I.I.I.I.",
"I.I.I.I.I.I.I.I.I.I.I.I.I.I.I.I.I.I.I.v.U 7 7 n B V C V Z Z Z Z -.*X-X*Xd.g   . 2 i p p p p p d L z.P.U.I.I.I.I.I.I.I.I.I.I.I.I.",
"I.I.I.I.I.I.I.I.I.I.I.I.I.I.I.I.I.I.I.U.P.h.D 2 q M C V Z Z Z V p R d.z o   $ 8 p p p p p p J $.G.U.I.I.I.I.I.I.I.I.I.I.I.I.I.I.",
"I.I.I.I.I.I.I.I.I.I.I.I.I.I.I.I.I.I.I.I.U.U.G.#.t < x N Z Z A V q   X   + 7 i p p p p p c ..A.I.U.I.I.I.I.I.I.I.I.I.I.I.I.I.I.I.",
"I.I.I.I.I.I.I.I.I.I.I.I.I.I.I.I.I.I.I.I.I.I.U.U.C.Q 5 6 x N Z V a # @ 1 i p p p p i s / x.P.I.I.I.I.I.I.I.I.I.I.I.I.I.I.I.I.I.I.",
"I.I.I.I.I.I.I.I.I.I.I.I.I.I.I.I.I.I.I.I.I.I.I.I.U.I.z.K 7 8 m C a 1 8 p p p p p p L g.P.U.I.I.I.I.I.I.I.I.I.I.I.I.I.I.I.I.I.I.I.",
"I.I.I.I.I.I.I.I.I.I.I.I.I.I.I.I.I.I.I.I.I.I.I.I.I.U.U.P.p.f < u 8 1 8 p p p p b $.G.I.I.I.I.I.I.I.I.I.I.I.I.I.I.I.I.I.I.I.I.I.I.",
"I.I.I.I.I.I.I.I.I.I.I.I.I.I.I.I.I.I.I.I.I.I.I.I.I.I.I.I.U.G.| r < < 7 p u c } v.I.I.I.I.I.I.I.I.I.I.I.I.I.I.I.I.I.I.I.I.I.I.I.I.",
"I.I.I.I.I.I.I.I.I.I.I.I.I.I.I.I.I.I.P.I.I.I.I.I.I.I.I.I.I.I.U.v.U 4 7 p L z.I.I.I.I.I.I.I.I.I.I.I.I.I.I.I.I.I.I.I.I.I.I.I.I.I.I.",
"I.I.I.I.I.I.I.I.I.I.I.I.I.I.I.I.I.I.I.I.I.I.I.I.I.I.I.I.I.I.I.I.I.Y , H H.U.I.I.I.I.I.I.I.I.I.I.I.I.I.I.I.I.I.I.I.I.I.I.I.I.I.I.",
"I.I.I.I.I.I.I.I.I.I.I.I.I.I.I.I.I.I.I.I.I.I.I.I.I.I.I.I.I.I.I.I.U.E . G P.U.I.I.I.I.I.I.I.I.I.I.I.I.I.I.I.I.I.I.I.I.I.I.I.I.I.I.",
"I.I.I.I.I.I.I.I.I.I.I.I.I.I.I.I.I.I.I.I.I.I.I.I.I.I.I.I.I.I.I.I.U.^ * I P.I.I.I.I.I.I.I.I.I.I.I.I.I.I.I.I.I.I.I.I.I.I.I.I.I.I.I.",
"I.I.I.I.I.I.I.I.I.I.I.I.I.I.I.I.I.I.I.I.I.I.I.I.I.I.I.I.I.I.I.I.P.K.h.S.I.I.I.I.I.I.I.I.I.I.I.I.I.I.I.I.I.I.I.I.I.I.I.I.I.I.I.I.",
"I.I.I.I.I.I.I.I.I.I.I.I.I.I.I.I.I.I.I.I.I.I.I.I.I.I.I.I.I.I.I.I.I.I.U.U.I.I.I.I.I.I.I.I.I.I.I.I.I.I.I.I.I.I.I.I.I.I.I.I.I.I.I.I.",
"I.I.I.I.I.I.I.I.I.I.I.I.I.I.I.I.I.I.I.I.I.I.I.I.I.I.I.I.I.I.I.I.I.I.U.U.I.I.I.I.I.I.I.I.I.I.I.I.I.I.I.I.I.I.I.I.I.I.I.I.I.I.I.I.",
"I.I.I.I.I.I.I.I.I.I.I.I.I.I.I.I.I.I.I.I.I.I.I.I.I.I.I.I.I.I.I.I.I.I.I.I.I.I.I.I.I.I.I.I.I.I.I.I.I.I.I.I.I.I.I.I.I.I.I.I.I.I.I.I.",
"I.I.I.I.I.I.I.I.I.I.I.I.I.I.I.I.I.I.I.I.I.I.I.I.I.I.I.I.I.I.I.I.I.I.I.I.I.I.I.I.I.I.I.I.I.I.I.I.I.I.I.I.I.I.I.P.I.I.I.I.I.I.I.I.",
"I.I.I.I.I.I.I.I.I.I.I.I.I.I.I.I.I.I.I.I.I.I.I.I.I.I.I.I.I.I.I.I.I.I.I.I.I.I.I.I.I.I.I.I.I.I.I.I.I.I.I.I.I.I.I.I.I.I.I.I.I.I.I.I.",
"I.I.I.I.I.I.I.I.I.I.I.I.I.I.I.I.I.I.I.I.I.I.I.I.I.I.I.I.I.I.I.I.I.I.I.I.I.I.I.I.I.I.I.I.I.I.I.I.I.I.I.I.I.I.I.I.I.I.I.I.I.I.I.I.",
"I.I.I.I.I.I.I.I.I.I.I.I.I.I.I.I.I.I.I.I.I.I.I.I.I.I.I.I.I.I.I.I.I.I.I.I.I.I.I.I.I.I.I.I.I.I.I.I.I.I.I.I.I.I.I.I.I.I.I.I.I.I.I.I.",
"I.I.I.I.I.I.I.I.I.I.I.I.I.I.I.I.I.I.I.I.I.I.I.I.I.I.I.I.I.I.I.I.I.I.I.I.I.I.I.I.I.I.I.I.I.I.I.I.I.I.I.I.I.I.I.I.I.I.I.I.I.I.I.I.",
"I.I.I.I.I.I.I.I.I.P.I.I.I.I.I.I.I.I.I.I.I.I.I.I.I.I.I.I.I.I.I.I.I.I.I.I.I.I.I.I.I.I.I.I.I.I.I.I.I.I.I.I.I.I.I.I.I.I.I.I.I.I.I.I.",
"I.I.I.I.I.I.I.I.I.I.I.I.I.I.I.I.I.I.I.I.I.I.I.I.I.I.I.I.I.I.I.I.I.I.I.I.I.I.I.I.I.I.I.I.I.I.I.I.I.I.I.I.I.I.I.I.I.I.I.I.I.I.I.I."
};
