/* XPM */
static char *result[] = {
/* columns rows colors chars-per-pixel */
"64 64 165 2 ",
"   c #2D0C00",
".  c #300E00",
"X  c #351504",
"o  c #391907",
"O  c #3C1D0C",
"+  c #3B1D10",
"@  c #3F2015",
"#  c #41210F",
"$  c #432414",
"%  c #462816",
"&  c #432519",
"*  c #4A2D1C",
"=  c #4E301E",
"-  c #50331F",
";  c #4B2E22",
":  c #4D3122",
">  c #4F3328",
",  c #513525",
"<  c #573A27",
"1  c #523629",
"2  c #553A2C",
"3  c #593D2C",
"4  c #593E31",
"5  c #5C402E",
"6  c #5B4132",
"7  c #5E4539",
"8  c #614634",
"9  c #654936",
"0  c #61473B",
"q  c #62493D",
"w  c #694E3B",
"e  c #6B513E",
"r  c #664E43",
"t  c #675044",
"y  c #6C5243",
"u  c #6D5549",
"i  c #6F584D",
"p  c #715745",
"a  c #755B47",
"s  c #755D4C",
"d  c #785F4C",
"f  c #735D53",
"g  c #7B624E",
"h  c #776156",
"j  c #7D6553",
"k  c #776359",
"l  c #7A655B",
"z  c #7D685F",
"x  c #7F6B60",
"c  c #816956",
"v  c #836C5B",
"b  c #89735E",
"n  c #816D63",
"m  c #847167",
"M  c #8C7562",
"N  c #8E7865",
"B  c #857369",
"V  c #89766D",
"C  c #8C796F",
"Z  c #927C67",
"A  c #927C69",
"S  c #8D7B72",
"D  c #907F75",
"F  c #97826E",
"G  c #99836F",
"H  c #908076",
"J  c #9A8572",
"K  c #9E8974",
"L  c #95847C",
"P  c #A18D79",
"I  c #A6927C",
"U  c #978780",
"Y  c #988780",
"T  c #9B8B83",
"R  c #9D8E88",
"E  c #9F9087",
"W  c #9F9089",
"Q  c #A69380",
"!  c #A99581",
"~  c #AE9B86",
"^  c #A2938C",
"/  c #AF9D88",
"(  c #B19E87",
")  c #B29F8A",
"_  c #A69790",
"`  c #A79992",
"'  c #AA9D96",
"]  c #AC9F99",
"[  c #B4A18D",
"{  c #ADA19B",
"}  c #B7A795",
"|  c #BBAA95",
" . c #B0A49E",
".. c #BCAC99",
"X. c #B4A9A4",
"o. c #BAAFAA",
"O. c #BFB0A2",
"+. c #BCB2AD",
"@. c #BEB5B1",
"#. c #BDBDBD",
"$. c #C1AF9A",
"%. c #C1B09B",
"&. c #C6B6A2",
"*. c #C9B9A4",
"=. c #C6BAAF",
"-. c #CCBDA8",
";. c #C0B6B2",
":. c #C4BBB7",
">. c #C6BEBA",
",. c #CFC0AC",
"<. c #D3C4AF",
"1. c #C7C0BB",
"2. c #CAC3BD",
"3. c #D4C6B1",
"4. c #D7C9B4",
"5. c #D9CBB5",
"6. c #D1C7BD",
"7. c #DDCFBB",
"8. c #DED1BB",
"9. c #E1D3BD",
"0. c #C3C3C3",
"q. c #CDC5C1",
"w. c #CFC8C4",
"e. c #CBCBCB",
"r. c #D1CAC6",
"t. c #D4CECA",
"y. c #D6D0CD",
"u. c #D8D2CF",
"i. c #D5D4D3",
"p. c #DAD5D2",
"a. c #DED9D6",
"s. c #DEDDDC",
"d. c #E2D6C1",
"f. c #E6D9C3",
"g. c #E9DCC7",
"h. c #E6DDCE",
"j. c #EBDEC9",
"k. c #E2DBD4",
"l. c #E2DEDB",
"z. c #EEE2CC",
"x. c #F1E4CE",
"c. c #E5E1DF",
"v. c #F3E7D1",
"b. c #F5EAD4",
"n. c #F8EDD6",
"m. c #F5ECD9",
"M. c #FAEFD9",
"N. c #FDF3DD",
"B. c #E4E3E2",
"V. c #E9E6E4",
"C. c #EBE8E6",
"Z. c #EEEEEE",
"A. c #F1EDE7",
"S. c #F1EEED",
"D. c #FFF6E0",
"F. c #FFF9E3",
"G. c #FFFFED",
"H. c #EFEFF0",
"J. c #EFF0F0",
"K. c #F3F3F3",
"L. c #F8F7F7",
"P. c #FDFBF3",
"I. c #F6F7F8",
"U. c #F7F8F9",
"Y. c #FFEEBA",
/* pixels */
"Y.Y.Y.Y.Y.Y.Y.Y.Y.Y.Y.Y.Y.Y.Y.Y.Y.Y.Y.Y.Y.Y.Y.Y.Y.Y.Y.Y.Y.Y.Y.Y.Y.Y.Y.Y.Y.Y.Y.Y.Y.Y.Y.Y.Y.Y.Y.Y.Y.Y.Y.Y.Y.Y.Y.Y.Y.Y.Y.Y.Y.Y.Y.Y.",
"Y.Y.Y.Y.Y.Y.U.Y.Y.Y.Y.Y.Y.Y.Y.Y.Y.Y.Y.Y.Y.Y.Y.Y.Y.Y.Y.Y.Y.Y.Y.Y.Y.k.>.l.Y.Y.Y.Y.Y.Y.Y.Y.Y.Y.Y.Y.Y.Y.Y.Y.Y.Y.Y.Y.Y.Y.Y.Y.Y.Y.Y.Y.",
"Y.Y.Y.Y.Y.Y.Y.Y.Y.Y.Y.Y.Y.Y.Y.Y.Y.Y.Y.Y.Y.Y.Y.Y.Y.Y.Y.Y.u.n , u s O > * r a.K.L.Y.Y.Y.Y.Y.Y.Y.Y.Y.Y.Y.Y.Y.Y.Y.Y.U.Y.Y.Y.Y.Y.Y.Y.",
"Y.Y.Y.Y.Y.Y.Y.Y.Y.Y.Y.Y.Y.Y.Y.Y.Y.Y.Y.Y.Y.Y.Y.Y.V.:.c.^ O C w.T i t.Y.S.Y O : * V U.Y.Y.Y.Y.Y.Y.Y.Y.Y.Y.Y.Y.Y.U.Y.Y.Y.Y.Y.Y.Y.Y.",
"Y.Y.Y.Y.Y.Y.Y.Y.Y.Y.Y.Y.Y.Y.Y.Y.Y.Y.Y.Y.Y.Y.K.n % q * * t.Y.Y.Y.Y.Y.Y.Y.Y.:.r.p.r f Y.Y.Y.Y.Y.Y.Y.Y.Y.Y.Y.Y.Y.Y.Y.Y.Y.Y.Y.Y.Y.Y.",
"Y.Y.Y.Y.Y.Y.Y.Y.Y.Y.Y.Y.Y.Y.Y.Y.Y.Y.L.C , 4 % 0 l.Y.l.C.Y.Y.Y.Y.Y.Y.Y.Y.Y.Y.Y.Y.B.f U.Y.L.L.Y.Y.Y.Y.Y.Y.Y.Y.Y.Y.Y.Y.Y.Y.Y.Y.Y.Y.",
"Y.Y.Y.Y.Y.Y.Y.Y.Y.Y.Y.U.Y.Y.Y.Y.Y. .= 2 ^ ^ T K.Y.Y.Y.Y.Y.Y.Y.Y.Y.Y.Y.Y.Y.Y.Y.Y.Y.Y.Y.@.% * Y Y.Y.Y.Y.Y.Y.Y.Y.Y.Y.Y.Y.Y.Y.Y.Y.Y.",
"Y.Y.Y.Y.Y.Y.Y.Y.Y.Y.Y.Y.Y.Y.Y.C.0 * L L.Y.Y.Y.Y.Y.Y.Y.Y.Y.Y.Y.Y.Y.Y.Y.Y.Y.Y.Y.Y.J.C.Y.:.{ q.1 S Y.U.Y.Y.U.Y.Y.Y.Y.Y.Y.Y.Y.Y.Y.Y.",
"Y.Y.Y.Y.Y.Y.Y.Y.Y.Y.Y.Y.Y.L.Y.f r Y.Y.U.Y.L.U.Y.Y.Y.Y.Y.Y.Y.Y.Y.Y.Y.Y.Y.Y.Y.K.K.Z.Z.Z.U.Y.Y.V.2 V.Y.U.Y.Y.Y.Y.Y.Y.Y.Y.Y.Y.Y.Y.Y.",
"Y.Y.Y.Y.Y.Y.Y.Y.Y.Y.Y.Y.Y.Y.r.; S.Y.Y.Y.Y.Y.Y.Y.Y.Y.Y.Y.Y.Y.Y.Y.Y.Y.Y.Y.Y.Y.Z.Z.Z.H.Z.Z.Z.C.Y.u * >.Y.Y.Y.Y.Y.Y.Y.Y.Y.Y.Y.Y.Y.Y.",
"Y.Y.Y.Y.Y.Y.Y.Y.Y.Y.Y.Y.:.u 6 C Y.U.Y.Y.Y.y.u.Y.Y.Y.Y.Y.Y.Y.Y.Y.Y.Y.Y.Y.l.p.Z.Z.H.J.K.Z.J.Z.H.s.^ 2 t.Y.Y.Y.Y.Y.Y.Y.Y.Y.Y.Y.Y.Y.",
"Y.Y.Y.Y.Y.Y.Y.Y.Y.Y.U.Y.7 z i r.Y.Y.Y.Y.Y.m x Y.Y.Y.Y.Y.Y.Y.Y.Y.Y.Y.Y.B O * :.Y.Z.Z.Z.H.Z.Z.Z.J.Y.Y v Y.L.Y.Y.Y.Y.Y.Y.Y.Y.Y.Y.Y.",
"Y.Y.Y.Y.Y.Y.Y.Y.Y.K.K.:.a.Y.Y.Y.Y.Y.Y.Y.Y.Y.Y.Y.Y.Y.Y.Y.Y.Y.Y.Y.Y.Y.Y.a.l.K.Y.Y.K.Z.J.J.I.I.Z.C.L.>.X u w.Y.Y.Y.Y.Y.Y.Y.Y.Y.Y.Y.",
"Y.Y.Y.Y.Y.Y.Y.2.f n q : Y.Y.U.Y.U.Y.Y.Y.Y.Y.Y.Y.Y.Y.Y.Y.Y.Y.Y.Y.Y.Y.Y.Y.Y.Y.Y.L.J.C.U.B : i.I.Z.H.Z.@.S 1 S u X.Y.Y.Y.Y.Y.Y.Y.Y.",
"Y.Y.Y.Y.Y.P.H * =. .3 L.Y.Y.Y.Y.Y.Y.Y.Y.Y.Y.Y.Y.Y.Y.Y.Y.Y.Y.Y.Y.Y.Y.Y.Y.Y.Y.Y.S.K.Z.K.t.L i.K.Z.Z.H.I.Y.w.4 y.l 7 w.Y.Y.Y.Y.Y.Y.",
"Y.Y.Y.Y.G.9 8 z.P.j ^ Y.Y.Y.Y.Y.Y.Y.Y.V.r.Y.Y.Y.Y.Y.Y.Y.Y.Y.Y.Y.Y.Y.Y.Y.Y.Y.Y.Y.Y.Z.Z.I.Y.K.Z.S.H.Z.Z.J.B.$ T Y.( o ' Y.Y.Y.Y.Y.",
"Y.Y.Y.P.d p D.v.D.c ^ Y.Y.Y.Y.Y.Y.Y.>.: s Z.Y.Y.Y.Y.Y.Y.Y.Y.Y.Y.Y.Y.Y.Y.Y.Y.Y.Y.Y.Z.J.Z.C.Z.J.Z.Z.Z.Z.J.Z.w.> ! G.3.% ;.Y.Y.Y.Y.",
"Y.Y.Y.s w N.b.v.M.* h Y.Y.Y.Y.Y.Y.Y.l.u.Y.Y.Y.Y.Y.Y.Y.Y.Y.Y.Y.Y.Y.Y.Y.Y.Y.Y.Y.Y.U.Z.Z.Z.K.Z.H.Z.K.Z.Z.Z.Z.Y.+.y D.N.4.: 1.Y.Y.Y.",
"Y.Y.X.% m.z.j.M.e t B.Y.Y.Y.T p.Y.Y.Y.Y.Y.U.Y.Y.Y.Y.Y.Y.Y.Y.Y.Y.Y.Y.Y.Y.Y.Y.Y.Y.Y.S.Z.Z.H.Z.K.Z.Z.H.U.K.Z.I.@.  ! M.N.} ; U.Y.Y.",
"Y.Y.4 P z.* 8.$.* K.Y.Y.Y.Y.^ a.Y.Y.Y.U.Y.Y.Y.Y.Y.Y.Y.Y.Y.Y.Y.Y.Y.Y.Y.Y.Y.Y.Y.Y.U.Z.Z.J.Z.J.Z.Z.H.Z.2.l.J.Z.Z.@.> 5.n.G.u Y Y.U.",
"Y.r.% b.v j Y.z v Y.U.Y.Y.Y.Y.Y.Y.Y.Y.Y.Y.Y.Y.Y.Y.Y.Y.Y.Y.Y.Y.Y.Y.Y.Y.Y.Y.Y.Y.K.Z.Z.Z.K.J.J.Z.Z.L.h o L Y.J.Z.Y.U s z.A <.1 U.Y.",
"Y.^ < F.8 3.J   ' Y.Y.Y.Y.Y.>.0 a.Y.Y.Y.Y.Y.Y.Y.U.Y.Y.Y.Y.Y.Y.Y.Y.Y.Y.Y.Y.Y.Y.Z.Z.H.Z.Z.Z.Z.K.Z.J.t.s.C.@.s.J.K.s.$ P 7 -.e w.Y.",
"Y.L w F.e y > r.K.Y.Y.Y.Y.Y.C.E c.Y.Y.Y.Y.Y.Y.Y.Y.Y.Y.Y.Y.Y.Y.Y.Y.Y.Y.Y.Y.Y.U.Z.Z.Z.J.Z.K.Z.K.Z.J.I.I.l.2 +.I.C.I.r.8 9 -.v T Y.",
"Y.T y G.b X y.Y.Y.Y.Y.U.Y.Y.Y.Y.Y.Y.Y.Y.Y.Y.Y.Y.Y.Y.Y.Y.Y.Y.Y.Y.Y.Y.Y.Y.U.L.K.Z.K.Z.Z.K.Z.Z.Z.J.H.H.Z.H.I.K.Z.J.H.Z.3 o *.J S Y.",
"Y.X.8 G.} j Y.U.Y.Y.Y.Y.Y.Y.Y.U.Y.Y.Y.Y.Y.Y.Y.Y.Y.Y.Y.Y.Y.Y.Y.Y.Y.Y.Y.Y.L.C.K.H.Z.I.I.B.Z.J.J.Z.Z.Z.Z.Z.Z.Z.Z.Z.Z.K.&.X 7.G D Y.",
"Y.r.* z.b.s V.Y.Y.Y.U.{ s r.Y.Y.Y.Y.Y.Y.Y.Y.Y.Y.Y.Y.Y.U.Y.Y.Y.Y.Y.Y.Y.Y.U.Z.Z.Z.I.q.6 : V I.Z.J.Z.Y.Y.Z.J.Z.Z.Z.Z.Y.v 8 P.v L Y.",
"Y.C.* <.F.[ S Y.U.Y.m 3 n u.Y.Y.Y.Y.Y.Y.Y.U.Y.Y.Y.Y.Y.Y.Y.Y.Y.Y.Y.Y.Y.K.L.Z.H.Z.I.:.Y i.p.Z.Z.Z.H.' { J.J.Z.Z.Z.Y.H + 5.F.9 o.Y.",
"Y.Y.1 } N.N.K ^ Y.Y.c.U.Y.Y.Y.Y.Y.Y.Y.U.L.U.Y.Y.Y.Y.Y.Y.Y.Y.Y.Y.Y.Y.U.Z.Z.H.Z.Z.Z.I.Y.I.I.Z.Z.J.Z.k H I.Z.Z.K.Y.n $ 5.D.9., B.Y.",
"Y.Y.s Z D.z.N.j X.Y.Y.Y.U.Y.Y.Y.Y.Y.U.L.Y.l.1.r.L.Y.Y.Y.U.U.U.L.I.I.H.Z.Z.C.Z.J.J.Z.C.Z.Z.I.J.J.J.Y.Y.Z.C.Y.Z.t $ 8.M.N.[ 0 Y.Y.",
"Y.Y.` 1 M.x.b.b.c Y Y.Y.Y.Y.Y.Y.Y.Y.U.L.Y.+.m u l.Y.Y.U.U.Y.Y.H.Z.H.Z.J.Z.Z.Z.J.J.Z.Z.J.C.t.Z.J.Z.Z.C.J.Y.:.$ 6 j.M.j.F.d L Y.Y.",
"Y.Y.a.* d.M.x.b.N.J l B.Y.Y.Y.Y.Y.Y.U.U.U.Y.Y.U.U.Y.Y.J.K.U.K.S.Z.J.Z.Z.H.Z.H.Z.J.Z.J.C.x x C.Z.Z.J.Y.s.z o M n.n.x.n.f.* a.Y.Y.",
"Y.Y.Y.6 [ N.x.v.x.F.&.e S V.Y.Y.Y.Y.L.L.U.Y.Y.L.L.L.L.J.Z.C.S.Z.J.J.Z.C.J.Z.Z.Z.J.H.J.J.i.J.Z.I.Y.B.C @ 9 3.F.x.x.x.F.A u Y.Y.Y.",
"Y.Y.Y.D a F.z.v.v.x.N.v.K e v 6.P.C.U.Y.Y.U.Z.J.Z.Z.Z.Z.Z.Z.Z.Z.Z.Z.Z.Z.C.Z.Z.C.C.C.Z.Z.U.Y.J.:.x $ 5 ..N.M.x.v.v.v.z.* >.Y.Y.Y.",
"Y.Y.Y.t.* j.b.b.v.v.x.b.F.z.F b *.* 7 L 2.Z.I.Y.Y.U.I.I.K.K.K.K.Z.Z.Z.Z.H.J.I.U.Y.Y.Y.Z.@.V 2 $ g %.N.N.x.x.v.v.v.N.J 7 Y.Y.Y.Y.",
"Y.Y.Y.Y.4 ( N.x.v.v.v.v.z.b.F.N.b.<.( g 5 6 u U X.1.w.p.s.l.c.C.K.I.Y.I.I.V.i.:.' S h 2 : a ) j.F.N.z.v.v.v.v.v.b.v.: >.Y.Y.Y.Y.",
"Y.Y.Y.Y.H w D.x.v.v.v.v.v.v.x.x.b.n.N.F.b.<.I j 6 5 5 6 < , 5 1 2 q f u r 2 : , 8 j P -.v.F.D.b.z.z.v.b.v.v.v.z.F.Z f Y.Y.Y.Y.Y.",
"Y.Y.Y.Y.l.$ 3.M.x.v.v.v.v.v.v.v.x.v.z.x.v.M.F.F.N.b.v.j.9.9.9.<.%.| } | &.3.9.b.N.D.D.M.v.x.z.v.b.v.v.v.v.v.x.N.-.& l.Y.Y.Y.Y.Y.",
"Y.Y.Y.Y.Y.l a D.x.v.v.v.v.v.v.v.b.x.x.b.v.x.x.x.x.v.v.b.n.n.n.M.N.N.N.N.N.m.n.b.v.x.z.v.v.v.v.v.v.v.v.v.v.v.v.n., ^ Y.Y.Y.Y.Y.Y.",
"Y.Y.Y.Y.Y.a.$ 8.n.x.v.v.v.v.v.v.b.x.b.x.v.v.v.v.v.v.v.v.v.x.v.v.x.x.z.v.z.v.x.v.v.v.v.v.v.v.v.v.v.v.v.v.v.x.F.v q Y.Y.Y.Y.Y.Y.Y.",
"Y.Y.Y.Y.Y.Y.f c F.z.v.v.v.v.v.v.x.b.x.b.v.v.v.v.x.v.v.v.v.v.v.v.b.b.v.v.b.v.v.v.b.v.v.v.v.v.v.v.v.v.v.v.z.N.| @ B.Y.Y.Y.Y.Y.Y.Y.",
"Y.Y.Y.Y.Y.Y.l.O &.N.x.v.v.v.v.v.b.x.b.x.b.v.v.v.v.v.v.v.v.v.v.v.x.b.x.b.v.v.v.v.v.x.b.x.v.v.v.v.v.v.v.x.b.f.$ o.Y.Y.Y.Y.Y.Y.Y.Y.",
"Y.Y.Y.Y.Y.Y.Y.^ $ z.n.x.v.v.v.v.x.b.x.b.x.b.v.v.v.v.b.v.v.v.v.v.b.x.b.x.v.v.v.v.v.b.x.b.v.v.v.v.v.v.v.v.N.3 V Y.Y.Y.Y.Y.Y.Y.Y.Y.",
"Y.Y.Y.Y.Y.Y.Y.Y.f 3 M.v.x.v.v.v.b.x.b.x.v.v.v.v.v.v.v.v.v.v.v.v.x.b.x.b.v.v.v.v.v.v.b.v.v.v.v.v.v.v.v.D.d 0 Y.Y.Y.Y.Y.Y.Y.Y.Y.Y.",
"Y.Y.Y.Y.Y.Y.Y.Y.Y.0 9 N.v.v.v.v.x.b.x.b.v.v.v.v.v.v.v.v.v.v.v.v.b.x.b.x.v.v.v.v.v.v.v.v.v.v.v.v.x.x.D.j ; K.Y.Y.Y.Y.Y.Y.Y.Y.Y.Y.",
"Y.Y.Y.Y.Y.Y.Y.Y.Y.L.r p N.b.v.v.v.v.v.v.v.v.v.v.v.v.v.v.b.x.b.x.x.b.v.v.v.v.v.v.v.v.v.v.v.v.v.v.x.F.N @ B.Y.Y.Y.Y.Y.Y.Y.Y.Y.Y.Y.",
"Y.Y.Y.Y.Y.Y.Y.Y.Y.Y.Y.4 w M.m.z.v.v.v.v.v.v.v.v.v.v.v.v.x.b.x.b.b.x.b.x.v.v.v.v.v.v.v.v.v.v.v.v.D.N $ s.Y.Y.Y.Y.Y.Y.Y.Y.Y.Y.Y.Y.",
"Y.Y.Y.Y.Y.Y.Y.Y.Y.Y.Y.L.t 3 j.D.z.v.v.v.v.v.v.v.v.v.v.v.b.x.b.x.x.b.x.b.v.v.v.v.v.v.v.v.v.z.m.N.g : B.Y.Y.Y.Y.Y.Y.Y.Y.Y.Y.Y.Y.Y.",
"Y.Y.Y.Y.Y.Y.Y.Y.Y.Y.Y.Y.Y.z + ..F.m.z.v.v.v.v.v.v.v.v.v.v.v.x.b.b.x.b.x.v.v.v.v.v.v.v.v.z.M.m.w 2 S.Y.Y.Y.Y.Y.Y.Y.Y.Y.Y.Y.Y.Y.Y.",
"Y.Y.Y.Y.Y.Y.Y.Y.Y.Y.Y.Y.Y.Y.' * d 8.F.x.x.b.b.v.v.v.v.v.b.x.b.x.b.x.b.x.v.v.v.b.v.b.v.z.D.d.= f L.Y.Y.Y.Y.Y.Y.Y.Y.Y.Y.Y.Y.Y.Y.Y.",
"Y.Y.Y.Y.Y.Y.Y.Y.Y.Y.Y.Y.Y.U.Y.K.n O F n.N.z.x.b.v.v.v.v.x.b.x.b.x.b.x.b.v.v.v.b.v.z.b.F.O.O S Y.Y.Y.Y.Y.Y.Y.Y.Y.Y.Y.Y.Y.Y.Y.Y.Y.",
"Y.Y.Y.Y.Y.Y.Y.Y.Y.Y.Y.Y.Y.Y.U.Y.Y.r.4 - ..N.N.x.x.v.v.v.b.x.v.b.b.x.b.x.v.v.x.z.b.D.g.j + X.Y.U.Y.U.Y.Y.Y.Y.Y.Y.Y.Y.Y.Y.Y.Y.Y.Y.",
"Y.Y.Y.Y.Y.Y.Y.Y.Y.Y.Y.Y.Y.Y.Y.Y.Y.Y.Y.] * e <.N.N.b.x.z.x.x.x.x.x.b.x.b.x.v.M.N.j.K % y B.Y.Y.Y.Y.Y.Y.Y.Y.Y.Y.Y.Y.Y.Y.Y.Y.Y.Y.Y.",
"Y.Y.Y.Y.Y.Y.Y.Y.Y.Y.Y.Y.Y.Y.Y.Y.Y.Y.Y.Y.K.D $ 9 ..v.N.F.N.N.N.N.b.x.b.b.N.b.4.F : X } Y.Y.Y.Y.Y.Y.Y.Y.U.Y.Y.Y.Y.Y.Y.Y.Y.Y.Y.Y.Y.",
"Y.Y.Y.Y.Y.Y.Y.Y.Y.Y.Y.Y.Y.Y.Y.Y.Y.Y.Y.U.Y.Y.V.m < 5 p M [ &.%.*.z.v.b.g.d = =   J 9 1.Y.U.Y.Y.Y.Y.Y.Y.Y.Y.Y.Y.Y.Y.Y.Y.Y.Y.Y.Y.Y.",
"Y.Y.Y.Y.Y.Y.Y.Y.Y.Y.Y.U.Y.Y.Y.Y.Y.Y.Y.Y.Y.Y.Y.Y.Y.m $ j , = % # I N.x.z.F / z.M A Z ^ Y.Y.Y.Y.Y.Y.Y.Y.Y.Y.Y.Y.Y.Y.Y.Y.Y.Y.Y.Y.Y.",
"Y.Y.Y.Y.Y.Y.Y.Y.Y.Y.Y.Y.Y.Y.Y.Y.Y.Y.Y.Y.Y.Y.Y.U.Y.L j G.v.z.g.g.x.b.x.x.F.d.s -.y J 7 Y.Y.Y.Y.Y.Y.Y.Y.Y.Y.U.Y.Y.Y.Y.Y.Y.Y.Y.Y.Y.",
"Y.Y.Y.Y.Y.Y.Y.Y.Y.Y.Y.Y.Y.Y.Y.Y.Y.Y.Y.Y.Y.Y.Y.U.Y.S M P.x.b.b.b.v.x.x.b.N.z.1 [ @ X L Y.Y.Y.Y.Y.Y.Y.Y.Y.Y.Y.U.Y.Y.Y.Y.Y.Y.Y.Y.Y.",
"Y.Y.Y.Y.Y.Y.Y.Y.U.Y.Y.Y.Y.Y.Y.Y.Y.Y.Y.Y.Y.Y.Y.Y.Y.V 2 k.z.N.N.N.D.N.n.x.3.K O # g w.Y.Y.Y.Y.Y.Y.Y.Y.Y.Y.Y.Y.Y.Y.Y.Y.Y.Y.Y.Y.Y.Y.",
"Y.Y.Y.Y.Y.Y.Y.U.Y.Y.Y.Y.Y.Y.Y.Y.Y.Y.Y.Y.Y.Y.Y.Y.Y.t.9 & = 9 p e e 9 3 = = 8 P h.U.Y.Y.Y.Y.Y.Y.Y.Y.Y.Y.Y.Y.Y.Y.Y.Y.Y.Y.Y.Y.Y.Y.Y.",
"Y.Y.Y.Y.Y.Y.Y.Y.Y.Y.Y.Y.Y.Y.Y.Y.Y.Y.Y.Y.Y.Y.Y.Y.Y.Y.Y.V.2.X.^ ^ Y L { w.A.Y.Y.Y.Y.Y.Y.Y.Y.Y.Y.Y.Y.Y.Y.Y.Y.Y.Y.Y.Y.U.Y.Y.Y.Y.Y.Y.",
"Y.Y.Y.Y.Y.Y.Y.Y.Y.Y.Y.Y.Y.Y.Y.Y.Y.Y.Y.Y.Y.Y.Y.Y.Y.Y.Y.Y.Y.Y.Y.Y.Y.Y.Y.Y.Y.Y.Y.Y.Y.Y.Y.Y.Y.Y.Y.Y.Y.Y.Y.Y.Y.Y.Y.Y.Y.Y.Y.Y.Y.Y.Y.Y.",
"Y.Y.Y.Y.Y.Y.Y.Y.Y.Y.Y.Y.Y.Y.Y.Y.Y.Y.Y.Y.Y.Y.Y.Y.Y.Y.Y.Y.Y.Y.U.Y.U.Y.U.Y.Y.Y.Y.U.Y.U.Y.Y.I.Y.I.Y.Y.Y.U.Y.Y.I.J.I.L.I.I.J.Z.Z.Y.Y.",
"Y.Y.Y.Y.Y.Y.Y.Y.Y.Y.Y.Y.Y.Y.Y.Y.Y.Y.Y.Y.Y.Y.Y.Y.Y.Y.Y.Y.Y.Y.Y.Y.Y.Y.Y.Y.Y.Y.K.1.0.#.0.0.#.0.#.B.e.#.#.Z.U.B.e.e.@.0.i.i.i.e.V.Y.",
"Y.Y.Y.Y.Y.Y.Y.Y.Y.Y.Y.Y.Y.Y.Y.Y.Y.Y.Y.Y.Y.Y.Y.Y.Y.Y.Y.Y.Y.Y.Y.Y.Y.Y.Y.Y.Y.Y.I.i.B.s.s.B.s.s.B.V.B.s.B.L.U.J.s.Z.Z.B.B.J.I.Z.L.Y."
};
