/* XPM */
static char *result[] = {
/* columns rows colors chars-per-pixel */
"64 64 147 2 ",
"   c #4A2F23",
".  c #463026",
"X  c #4B3024",
"o  c #4B362A",
"O  c #4E3B2D",
"+  c #52392C",
"@  c #553D32",
"#  c #534331",
"$  c #5A4234",
"%  c #5A4B35",
"&  c #5B453C",
"*  c #5B4D39",
"=  c #5D523B",
"-  c #624A3F",
";  c #64553C",
":  c #63593D",
">  c #675147",
",  c #655C40",
"<  c #6A5349",
"1  c #6F594F",
"2  c #725C43",
"3  c #735E55",
"4  c #6B6545",
"5  c #6E6949",
"6  c #766047",
"7  c #72714D",
"8  c #756057",
"9  c #79655C",
"0  c #786F58",
"q  c #767751",
"w  c #777952",
"e  c #787C53",
"r  c #7D7E5B",
"t  c #877455",
"y  c #8B7757",
"u  c #816E66",
"i  c #827067",
"p  c #827E63",
"a  c #85736C",
"s  c #88776F",
"d  c #877C6B",
"f  c #897E6D",
"g  c #8D7C75",
"h  c #907F78",
"j  c #7B8157",
"k  c #7E855A",
"l  c #80835E",
"z  c #838D5E",
"x  c #95845F",
"c  c #858465",
"v  c #868D64",
"b  c #88826B",
"n  c #8A8C6B",
"m  c #9C8B65",
"M  c #869262",
"N  c #889564",
"B  c #8A9966",
"V  c #8B9569",
"C  c #8D9C69",
"Z  c #919D6F",
"A  c #8C8471",
"S  c #8F8A73",
"D  c #918777",
"F  c #908B75",
"G  c #93837B",
"H  c #958C7B",
"J  c #939A74",
"K  c #96917C",
"L  c #A3946B",
"P  c #8FA16B",
"I  c #91A56E",
"U  c #92A86E",
"Y  c #94A771",
"T  c #95AC72",
"R  c #98AC75",
"E  c #99B376",
"W  c #9BB877",
"Q  c #9CB779",
"!  c #9EBB7A",
"~  c #A0BF7D",
"^  c #A2C27E",
"/  c #978780",
"(  c #9A8C83",
")  c #9E8F89",
"_  c #979080",
"`  c #9B9383",
"'  c #9F9887",
"]  c #9F928A",
"[  c #A1948C",
"{  c #A2998C",
"}  c #A39691",
"|  c #A79A94",
" . c #A99B96",
".. c #AA9D98",
"X. c #ABA597",
"o. c #AEA29C",
"O. c #B0A49F",
"+. c #B2A6A2",
"@. c #B5AAA4",
"#. c #B7ADA8",
"$. c #BAAFAB",
"%. c #BBB2AD",
"&. c #BFB5B1",
"*. c #C7BD89",
"=. c #C0B7B3",
"-. c #C3BAB6",
";. c #C6BDBA",
":. c #A5C682",
">. c #A6C983",
",. c #A9CD86",
"<. c #ABCF88",
"1. c #AAD187",
"2. c #ADD38A",
"3. c #AFD88C",
"4. c #B1DB8E",
"5. c #B3DD90",
"6. c #B6E294",
"7. c #B8E696",
"8. c #B9E897",
"9. c #BBEA99",
"0. c #BEF09C",
"q. c #C9C0BD",
"w. c #CDC5C2",
"e. c #CFC8C5",
"r. c #D0C7C5",
"t. c #D1CAC7",
"y. c #D2CBC9",
"u. c #D6D0CE",
"i. c #D8D1CF",
"p. c #DAD4D2",
"a. c #DED9D7",
"s. c #DFD9D8",
"d. c #E2DDDB",
"f. c #E4E0DE",
"g. c #FFE1DF",
"h. c #E7E3E2",
"j. c #E9E6E5",
"k. c #EEEBEA",
"l. c #FFE5E4",
"z. c #F1EEEE",
"x. c #FFEBEA",
"c. c #F2F0EF",
"v. c #F5F4F3",
"b. c #F8F6F7",
"n. c #F9F8F7",
"m. c #FFFFFF",
"M. c #FFEEBA",
/* pixels */
"M.M.M.M.M.M.M.M.M.M.M.M.M.M.M.M.M.M.M.M.M.M.M.M.M.M.M.M.M.M.M.M.M.M.M.M.M.M.M.M.M.M.M.M.M.M.M.M.M.M.M.M.M.M.M.M.M.M.M.M.M.M.M.M.",
"M.M.M.M.M.M.M.M.M.M.M.M.M.M.M.M.M.M.M.M.M.M.M.M.M.M.M.M.M.M.M.M.M.M.M.M.M.M.M.M.M.M.M.M.M.M.M.M.M.M.M.M.M.M.M.M.M.M.M.M.M.M.M.M.",
"M.M.M.M.M.M.M.M.M.M.M.M.M.M.M.M.M.M.M.M.M.M.M.M.M.M.M.M.M.M.M.M.M.M.M.M.M.M.M.M.M.M.M.M.M.M.M.M.M.M.M.M.M.M.M.M.M.M.M.M.M.M.M.M.",
"M.M.M.M.M.M.M.M.M.M.M.M.M.M.M.M.M.M.M.M.M.M.M.M.M.M.M.M.M.M.M.M.M.M.M.M.M.M.M.M.M.M.M.M.M.M.M.M.M.M.M.M.M.M.M.M.M.M.M.M.M.M.M.M.",
"M.M.M.M.M.M.M.M.M.M.M.M.M.M.M.M.M.M.M.M.M.M.M.M.M.M.M.M.M.M.M.M.M.M.M.M.M.M.M.M.M.M.M.M.M.M.M.M.M.M.M.M.M.M.M.M.M.M.M.M.M.M.M.M.",
"M.M.M.M.M.M.M.M.M.M.M.M.M.M.M.M.M.M.M.M.M.M.M.M.M.M.M.M.M.M.M.M.M.M.M.M.M.M.M.M.M.M.M.M.M.M.M.M.M.M.M.M.M.M.M.M.M.M.M.M.M.M.M.M.",
"M.M.M.M.M.M.M.M.M.M.M.M.M.M.M.M.M.M.M.M.M.M.M.M.M.M.M.M.M.M.M.M.M.M.M.M.M.M.M.M.M.M.M.M.M.M.M.M.M.M.M.M.M.M.M.M.M.M.M.M.M.M.M.M.",
"M.M.M.M.M.M.M.M.M.M.M.M.M.M.M.M.M.M.M.d.t.y.j.M.h.j.M.M.M.M.M.M.M.M.M.M.M.M.M.M.p.y.u.M.M.j.M.M.M.M.M.M.M.M.M.M.M.M.M.M.M.M.M.M.",
"M.M.M.M.M.M.M.M.M.M.M.M.M.M.M.M.M.M.p.g ( h ( m.%.+.M.M.M.k. .H G o.j.+.M.M.M.f.] ( u o.b.[ d.M.M.M.M.M.M.M.M.M.M.M.M.M.M.M.M.M.",
"M.M.M.M.M.M.M.M.M.M.M.M.M.M.M.M.M.M.;.| m.j.G f.&.} M.M.M.M.s.f...[ h.H M.M.M.M.M.h.g $.t.s t.M.M.M.M.M.M.M.M.M.M.M.M.M.M.M.M.M.",
"M.M.M.M.M.M.M.M.M.M.M.M.M.M.M.M.M.M.;. .M.M./ y.-.] M.M.M.M.M.p.g p.f./ M.M.M.M.s.a s @./ 9 w.M.M.M.M.M.M.M.M.M.M.M.M.M.M.M.M.M.",
"M.M.M.M.M.M.M.M.M.M.M.M.M.M.M.M.M.M.;.H w.&.s p.w.} M.M.M.M.j.G $.M.i.G M.M.M.j./ +.)  .n.] ;.M.M.M.M.M.M.M.M.M.M.M.M.M.M.M.M.M.",
"M.M.M.M.M.M.M.M.M.M.M.M.M.M.M.M.M.M.h.[ / ) G +.&.d.M.M.M.M.o. .M.M.t.G M.M.M.k.p.h.s.w.d.| u.M.M.M.M.M.M.M.M.M.M.M.M.M.M.M.M.M.",
"M.M.M.M.M.M.M.M.M.M.M.M.M.M.M.M.M.M.M.M.M.;.h o.g @.M.M.M.M.p.M.M.M.a.&.M.M.M.M.d./ G G g / k.M.M.M.M.M.M.M.M.M.M.M.M.M.M.M.M.M.",
"M.M.M.M.M.M.M.M.M.M.M.M.M.M.M.M.M.M.M.M.M.} o.v.@.) M.M.M.M.M.M.M.M.M.M.M.M.M.M.M.M.M.M.j.G p.M.M.M.M.M.M.M.M.M.M.M.M.M.M.M.M.M.",
"M.M.M.M.M.M.M.M.M.M.M.M.M.M.M.M.M.M.M.M.M.p.( g G u.M.M.M.M.M.M.M.M.M.M.M.M.M.M.M.M.M.M.M.} s.M.M.M.M.M.M.M.M.M.M.M.M.M.M.M.M.M.",
"M.M.M.M.M.M.M.M.M.M.M.M.M.M.M.M.M.M.M.M.M.M.M.d.M.M.M.M.M.M.M.M.M.M.M.M.M.M.M.M.M.M.M.M.M.h.M.M.M.M.M.M.M.M.M.M.M.M.M.M.M.M.M.M.",
"M.M.M.M.M.M.M.M.M.M.M.M.M.M.M.M.M.M.M.M.M.M.M.M.M.M.M.M.M.M.M.M.M.M.M.M.M.M.M.M.M.M.M.M.M.M.M.M.M.M.M.M.M.M.M.M.M.M.M.M.M.M.M.M.",
"M.M.M.M.M.M.M.M.M.M.M.M.M.M.M.M.M.M.M.M.M.M.M.M.M.M.M.M.M.M.M.M.M.M.M.M.M.M.M.M.M.M.M.M.M.M.M.M.M.M.M.M.M.M.M.M.M.M.M.M.M.M.M.M.",
"M.M.M.M.M.M.M.M.M.M.M.M.M.M.M.M.M.M.M.M.M.M.M.M.M.M.M.M.M.M.M.M.M.M.M.M.M.M.M.M.M.M.M.M.M.M.M.M.M.M.M.M.M.M.M.M.M.M.M.M.M.M.M.M.",
"M.M.M.M.M.M.M.M.M.M.M.M.M.M.M.M.M.M.M.M.M.M.M.M.M.M.M.M.M.M.M.M.M.M.M.M.M.M.M.M.M.M.M.M.M.M.M.M.M.M.M.M.M.M.M.M.M.M.M.M.M.M.M.M.",
"M.M.M.M.M.M.M.M.M.M.M.M.M.M.M.M.M.M.M.M.M.M.M.M.M.M.M.M.M.M.M.M.M.M.M.M.M.M.M.M.M.M.M.M.M.M.M.M.M.M.M.M.M.M.M.M.M.M.M.M.M.M.M.M.",
"M.M.M.M.M.M.M.M.M.M.M.M.M.M.M.M.M.M.M.M.M.M.M.M.M.M.M.M.M.M.M.M.M.M.M.M.M.M.M.M.M.M.M.M.M.M.M.M.M.M.M.M.M.M.M.M.M.M.M.M.M.M.M.M.",
"M.M.M.M.M.M.M.M.M.M.M.M.M.M.M.M.M.M.M.M.M.M.M.M.M.M.M.M.M.M.M.M.M.M.M.M.M.M.M.M.M.M.M.M.M.M.M.M.M.M.M.M.M.M.M.M.M.M.M.M.M.M.M.M.",
"M.M.M.M.M.M.M.M.M.M.M.M.M.M.M.M.M.M.M.M.M.M.M.M.M.M.M.M.M.M.M.M.M.M.M.M.M.M.M.M.M.M.M.M.M.M.M.M.M.M.M.M.M.M.M.M.M.M.M.M.M.M.M.M.",
"M.M.M.M.M.M.M.M.M.M.M.M.M.M.M.M.M.M.M.M.M.M.M.M.M.M.M.M.M.M.M.M.M.M.M.M.M.M.M.M.M.M.M.M.M.M.M.M.M.M.M.M.M.M.M.M.M.M.M.M.M.M.M.M.",
"M.M.M.M.M.M.M.M.M.M.M.M.M.M.M.M.M.M.M.M.M.M.M.M.M.M.M.M.M.M.M.M.M.M.M.M.M.M.M.M.M.M.M.M.M.M.M.M.M.M.M.M.M.M.M.M.M.M.M.M.M.M.M.M.",
"M.M.M.M.M.M.M.M.M.M.M.M.M.M.M.M.M.M.M.M.M.M.M.M.M.M.M.M.M.M.M.M.M.M.M.M.M.M.M.M.M.M.M.M.M.M.M.M.M.M.M.M.M.M.M.M.M.M.M.M.M.M.M.M.",
"M.M.M.M.M.M.M.M.M.M.M.M.M.M.M.M.M.M.M.M.M.M.M.M.M.3 h [ ..O.O.+...[ H 9 1 M.M.M.M.M.M.M.M.M.M.M.M.M.M.M.M.M.M.M.M.M.M.M.M.M.M.M.",
"M.M.M.M.M.M.M.M.M.M.M.M.M.M.M.M.M.M.: q k z v e 5 f #.d.m.m.m.m.m.m.n.v.h.t.$.( 9 M.M.M.M.M.M.M.M.M.M.M.M.M.M.M.M.M.M.M.M.M.M.M.",
"M.M.M.M.M.M.M.M.M.M.M.M.M.M.M.% l ~ 4.7.9.9.9.9.7.2.U c ` y.n.m.m.m.m.m.m.m.m.m.z.t.) < M.M.M.M.M.M.M.M.M.M.M.M.M.M.M.M.M.M.M.M.",
"M.M.M.M.M.M.M.M.M.M.M.M.M.% z :.8.9.9.9.9.9.9.0.9.9.9.8.^ v [ d.m.m.m.m.m.m.m.m.m.m.n.d.| > M.M.M.M.M.M.M.M.M.M.M.M.M.M.M.M.M.M.",
"M.M.M.M.M.M.M.M.M.M.M.M.4 ! 9.9.9.9.7.4.>.^ ! Q ! ,.4.7.0.9.^ c #.b.m.b.h.p.r.w.e.a.k.m.m.p.g M.M.M.M.M.M.M.M.M.M.M.M.M.M.M.M.M.",
"M.M.M.M.M.M.M.M.M.M.M.4 :.9.9.9.6.T n S { O.+.+.o.[ A v T 4.9.5.B D | F v v B C C v c H &.k.v.+.- M.M.M.M.M.M.M.M.M.M.M.M.M.M.M.",
"M.M.M.M.M.M.M.M.M.M.: >.9.8.9.! n %.f.b.m.m.m.m.m.m.b.a.@.b I 5.9.>.~ 5.9.9.9.9.9.9.6.>.P b +.k.w.8 M.M.M.M.M.M.M.M.M.M.M.M.M.M.",
"M.M.M.M.M.M.M.M.M.M.T 9.9.8.I ] j.m.m.m.m.m.m.m.m.m.m.m.m.k.+.c ,.9.9.9.9.9.9.9.8.9.8.9.9.5.P b p.s.u M.M.M.M.M.M.M.M.M.M.M.M.M.",
"M.M.M.M.M.M.M.M.M.w 6.8.9.E o.b.m.m.m.m.m.m.m.m.g.x.m.m.m.m.m.w.r 9.8.9.9.9.8.9.8.8.9.9.9.8.0.^ p t.h.a M.M.M.M.M.M.M.M.M.M.M.M.",
"M.M.t $ X M.M.M.+ W 9.9.<.H v.m.m.m.m.m.m.m.v.m.l.x.m.m.m.m.m.r.v 9.8.8.9.8.9.2.8.8.9.8.8.9.8.0.2.p p.h.a M.M.M.M.M.M.M.M.M.M.M.",
"M.2 *.6 M.M.M.M.5 5.9.9.C p.m.m.m.m.m.m.m.p.3 p.m.m.m.m.m.m.m.%.P 9.8.9.9.9.9.M >.9.8.9.9.8.8.8.9.:.d v.j.i M.M.M.M.M.M.M.M.M.M.",
"M.M.; M.M.M.M.M.z 9.9.1.{ n.m.m.m.m.m.m.m.f.H d.m.m.m.m.m.m.m.O.W 9.8.9.9.9.9.P T 0.9.8.9.8.6.8.9.9.v %.m.h.g @ M.M.M.M.M.M.M.M.",
"M.M.M.M.M.M.M.M.I 9.9.W ;.m.m.m.m.m.m.m.m.m.m.m.m.m.m.m.m.m.m.{ ~ 9.9.9.8.9.9.W P 0.8.8.9.2.B 8.9.9.>.A b.m.b.;.u M.M.M.M.M.M.M.",
"M.M.M.M.M.M.M.M.E 0.9.J a.m.m.m.m.m.m.m.m.m.m.a.y.m.m.m.m.m.m.( >.9.9.9.8.9.9.X.N 8.8.8.8.5.j 6.9.9.8.l p.m.m.m.c.%.9 M.M.M.M.M.",
"M.M.M.M.M.M.M.M.! 9.8.J j.m.m.m.m.m.m.m.m.m.z.$.;.m.m.m.m.m.n.D ,.9.8.9.8.8.9.:.N 0.8.8.8.7.k 5.9.9.9.Y #.m.m.m.m.m.k.@.3 M.M.M.",
"M.M.M.M.M.M.M.M.Q 9.7.J k.m.m.m.m.m.m.m.m.m.n.&.w.m.m.m.m.m.m.D 1.9.9.8.9.9.9.:.N 0.8.9.8.6.k 5.9.7.9.:.( m.m.m.m.m.m.m.j.[ @ M.",
"M.M.M.M.M.M.M.M.E 9.9.J h.m.m.m.m.m.m.m.m.m.m.j.c.m.m.m.m.m.n.D 2.9.8.9.8.9.9.! B 8.8.9.8.5.k 6.9.8.9.3.A b.m.m.m.m.m.m.m.n.o.M.",
"M.M.M.M.M.M.M.M.I 9.9.R y.m.m.m.m.m.m.m.m.b.k.m.m.m.m.m.m.m.m.D 1.9.9.8.9.8.9.Q U 9.9.8.8.3.N 9.8.9.9.5.0 t.m.m.m.m.m.m.m.m.a.- ",
"M.M.M.M.M.M.X M.k 9.9.>.X.m.m.m.m.m.m.m.b.[ 8 q.w.e.p.h.v.m.m.( >.9.9.9.9.8.9.T U 0.8.8.8.7.4.8.8.8.9.4.7 r H y.n.m.m.m.m.b...M.",
"M.M.M.M.M.M.M.M.4 2.9.9.J d.m.m.m.m.h.-.o.o.%.w.w.q.%.+.+.k.m.{ ^ 9.9.9.8.9.9.,.3.8.8.8.9.8.9.8.9.9.8.6.>.7.:.l [ s.p.w.@.a O M.",
"M.M.M.m y M.M.M.M.I 9.9.<.Y c.m.m.v.-.p.b.m.m.m.m.m.m.m.n.m.m.$.Q 9.9.8.9.7.9.9.9.8.9.9.9.8.9.9.8.8.9.8.9.9.9.8.M $ & @ M.M.M.M.",
"M.M.M.L x M.M.M.M.: ,.9.9.X.{ j.m.m.m.m.m.m.m.m.m.m.m.m.m.m.n.+.Y 9.7.9.9.9.8.9.9.9.8.9.8.9.8.9.9.8.9.8.9.8.9.0.~ o M.M.M.M.M.M.",
"M.M.M.M.M.M.M.M.M.M.7 ~ 9.9.>.J o.y.h.b.n.m.m.m.m.n.v.j.i.#.D V ,.,.6.9.9.9.9.9.9.9.9.9.9.9.9.9.0.0.9.9.0.9.8.1.w M.M.M.M.M.M.M.",
"M.M.M.M.M.M.M.M.M.: ^ T ! 9.0.8.>.Y n S K _ H _ K H S n V C I z : % 4 j M C I I I I P P C Y E ^ ^ ^ X.! U B w = M.M.M.M.M.M.M.M.",
"M.M.M.M.M.M.M.M.M.M.k U U ! ^ >.2.3.2.,.:.W W W Q W W I z 5 # M.M.M.M.M.M.M.M.M.M.M.M.M.M.M.o O # # # O . M.M.M.M.M.M.M.M.M.M.M.",
"M.M.M.M.M.M.M.M.M.M.M.M.M.O # # % = = = = = % * = # O M.M.M.M.M.M.M.M.M.M.M.M.M.M.M.M.M.M.M.M.M.M.M.M.M.M.M.M.M.M.M.M.M.M.M.M.M.",
"M.M.M.M.M.M.M.M.M.M.M.M.M.M.M.M.M.M.M.M.M.M.M.M.M.M.M.M.M.M.M.M.M.M.M.M.M.M.M.M.M.M.M.M.M.M.M.M.M.M.M.M.M.M.M.M.M.M.M.M.M.M.M.M.",
"M.M.M.M.M.M.M.M.M.M.M.M.M.M.M.M.M.M.M.M.M.M.M.M.M.M.M.M.M.M.M.M.M.M.M.M.M.M.M.M.M.M.M.M.M.M.M.M.M.M.M.M.M.M.M.M.M.M.M.M.M.M.M.M.",
"M.M.M.M.M.M.M.M.M.M.M.M.M.M.M.M.M.M.M.M.M.M.M.M.M.M.M.M.M.M.M.M.M.M.M.M.M.M.M.M.M.M.M.M.M.M.M.M.M.M.M.M.M.M.M.M.M.M.M.M.M.M.M.M.",
"M.M.M.M.M.M.M.M.M.M.M.M.M.M.M.M.M.M.M.M.M.M.M.M.M.M.M.M.M.M.M.M.M.M.M.M.M.M.M.M.M.M.M.M.M.M.M.M.M.M.M.M.M.M.M.M.M.M.M.M.M.M.M.M.",
"M.M.M.M.M.M.M.M.M.M.M.M.M.M.M.M.M.M.M.M.M.M.M.M.M.M.M.M.M.M.M.M.M.M.M.M.M.M.M.M.M.M.M.M.M.M.M.M.M.M.M.M.M.M.M.M.M.M.M.M.M.M.M.M.",
"M.M.M.M.M.M.M.M.M.M.M.M.M.M.M.M.M.M.M.M.M.M.M.M.M.M.M.M.M.M.M.M.M.M.M.M.M.M.M.M.M.M.M.M.M.M.M.M.M.M.M.M.M.M.M.M.M.M.M.M.M.M.M.M.",
"M.M.M.M.M.M.M.M.M.M.M.M.M.M.M.M.M.M.M.M.M.M.M.M.M.M.M.M.M.M.M.M.M.M.M.M.M.M.M.M.M.M.M.M.M.M.M.M.M.M.M.M.M.M.M.M.M.M.M.M.M.M.M.M.",
"M.M.M.M.M.M.M.M.M.M.M.M.M.M.M.M.M.M.M.M.M.M.M.M.M.M.M.M.M.M.M.M.M.M.M.M.M.M.M.M.M.M.M.M.M.M.M.M.M.M.M.M.M.M.M.M.M.M.M.M.M.M.M.M.",
"M.M.M.M.M.M.M.M.M.M.M.M.M.M.M.M.M.M.M.M.M.M.M.M.M.M.M.M.M.M.M.M.M.M.M.M.M.M.M.M.M.M.M.M.M.M.M.M.M.M.M.M.M.M.M.M.M.M.M.M.M.M.M.M.",
"M.M.M.M.M.M.M.M.M.M.M.M.M.M.M.M.M.M.M.M.M.M.M.M.M.M.M.M.M.M.M.M.M.M.M.M.M.M.M.M.M.M.M.M.M.M.M.M.M.M.M.M.M.M.M.M.M.M.M.M.M.M.M.M."
};
